<?xml version="1.0" encoding="UTF-8"?>
<svg id="_图层_1" data-name="图层_1" xmlns="http://www.w3.org/2000/svg" version="1.1" viewBox="0 0 442.1 160">
  <!-- Generator: Adobe Illustrator 29.0.0, SVG Export Plug-In . SVG Version: 2.1.0 Build 186)  -->
  <path d="M111.7,108H22.13v-12.69h89.57v12.69ZM110.1,50.71h-12.57v-13.06h-61.23v13.06h-12.57v-25.63h86.37v25.63ZM42.83,131.54c6.08,2.22,11.07,3.04,14.97,2.46,3.9-.57,5.85-3.12,5.85-7.64v-34.87c1.48-.9,3.8-2.59,6.96-5.05,3.16-2.46,6.26-5.24,9.3-8.32,3.04-3.08,5.34-5.93,6.9-8.56H31v-12.81h72.08v11.83c-1.81,4.19-4.21,8.07-7.21,11.64-3,3.57-5.96,6.63-8.87,9.18-2.92,2.55-5.85,4.89-8.81,7.02-.99.66-1.64,1.11-1.97,1.35v28.58c0,8.46-1.89,14.23-5.67,17.31-3.78,3.08-8.01,4.44-12.69,4.07-4.68-.37-9.98-1.37-15.89-3.02-.41-.08-.7-.16-.86-.25-.41-.16-.74-.25-.99-.25l2.71-12.69ZM63.16,32.48c-.9-3.45-2.83-9.44-5.79-17.99l12.32-1.6c2.96,7.72,5.01,13.72,6.16,17.99l-12.69,1.6Z"/>
  <path d="M124.27,143.36c3.94-6.98,6.51-14.23,7.7-21.75,1.19-7.52,1.79-16.41,1.79-26.67v-20.58h-9.24v-12.81h21.81v29.82c0,12.65-.64,23.12-1.91,31.42-1.27,8.3-4.09,16.59-8.44,24.89l-11.7-4.31ZM135.6,49.6c-1.73-7.23-3.35-13.18-4.87-17.86-1.52-4.68-3.35-9.2-5.48-13.55l11.21-4.68c2.54,4.93,4.64,9.88,6.28,14.85,1.64,4.97,3.28,11.15,4.93,18.54l-12.07,2.71ZM213.96,145.58h-43.37c-7.64,0-14.54-1.99-20.7-5.98-6.16-3.98-11.99-9.34-17.5-16.08l9.61-8.25c5.26,6.33,10.02,10.84,14.29,13.55,4.27,2.71,9.03,4.07,14.29,4.07h43.37v12.69ZM150.76,47.02c1.73-4.27,3.08-8.79,4.07-13.55.99-4.76,1.77-10.88,2.34-18.36h12.57c-.58,8.46-1.42,15.26-2.53,20.39-1.11,5.13-2.65,9.92-4.62,14.35l-11.83-2.83ZM212.48,67.96h-58.65v-12.57h58.65v12.57ZM209.16,121.31h-51.99v-40.41h51.99v40.41ZM211,37.04h-51.01v-12.69h51.01v12.69ZM169.73,108.62h26.74v-15.15h-26.74v15.15ZM191.91,62.17h-12.69V13.26h12.69v48.91Z"/>
  <path d="M315.85,108h-89.57v-12.69h89.57v12.69ZM314.25,50.71h-12.57v-13.06h-61.23v13.06h-12.57v-25.63h86.37v25.63ZM246.98,131.54c6.08,2.22,11.07,3.04,14.97,2.46,3.9-.57,5.85-3.12,5.85-7.64v-34.87c1.48-.9,3.8-2.59,6.96-5.05,3.16-2.46,6.26-5.24,9.3-8.32,3.04-3.08,5.34-5.93,6.9-8.56h-55.81v-12.81h72.08v11.83c-1.81,4.19-4.21,8.07-7.21,11.64-3,3.57-5.96,6.63-8.87,9.18-2.92,2.55-5.85,4.89-8.81,7.02-.99.66-1.64,1.11-1.97,1.35v28.58c0,8.46-1.89,14.23-5.67,17.31-3.78,3.08-8.01,4.44-12.69,4.07-4.68-.37-9.98-1.37-15.89-3.02-.41-.08-.7-.16-.86-.25-.41-.16-.74-.25-.99-.25l2.71-12.69ZM267.31,32.48c-.9-3.45-2.83-9.44-5.79-17.99l12.32-1.6c2.96,7.72,5.01,13.72,6.16,17.99l-12.69,1.6Z"/>
  <path d="M328.17,143.36c3.2-10.27,5.22-23.02,6.04-38.25.82-15.24,1.19-33.33,1.11-54.27-.17-6.98-.25-13.02-.25-18.11v-8.99h82.67v12.69h-69.98v13.31c0,22.34-.45,41.58-1.36,57.72-.9,16.14-3.04,29.51-6.41,40.1l-11.83-4.19ZM415.4,65.25h-61.73v-12.57h61.73v12.57ZM417.86,127.22h-64.19v-12.57h64.19v12.57ZM414.17,97.53h-56.06v-13.55c.08-.16.16-.29.25-.37,2.38-4.35,4.81-10.27,7.27-17.74,2.46-7.47,4.48-15.81,6.04-25.01l12.44,1.23c-1.31,8.71-3.18,16.78-5.61,24.21-2.42,7.43-4.83,13.66-7.21,18.67h42.88v12.57ZM373.39,32.48c-.9-3.53-2.92-9.61-6.04-18.23l12.44-1.73c2.96,7.97,5.09,14.09,6.41,18.36l-12.81,1.6ZM397.04,147.31h-12.57v-75.03h12.57v75.03Z"/>
</svg>