<?xml version="1.0" encoding="UTF-8"?>
<svg id="_图层_1" xmlns="http://www.w3.org/2000/svg" version="1.1" viewBox="0 0 224.7 160">
  <!-- Generator: Adobe Illustrator 29.0.0, SVG Export Plug-In . SVG Version: 2.1.0 Build 186)  -->
  <defs>
    <style>
      .st0 {
        fill: #ff8c19;
      }
    </style>
  </defs>
  <path class="st0" d="M109.8,115.7H7.4v-19.2h102.4v19.2ZM109.1,46.1h-19v-11.6H27.1v11.6H8.1V15.5h101v30.7ZM29.2,132.9c5.8,2.6,11.2,4,16,4.1,4.8.3,7.2-2.1,7.2-7.1v-38.9c2.6-1.6,5.5-3.4,8.9-5.8s6.7-4.8,9.5-7.4c3-2.6,5-4.5,6.1-6.2H15v-19.3h87.1v17.6c-1.8,4.4-4.4,8.5-7.8,12.2-3.3,3.7-6.5,6.8-9.8,9.4-3.3,2.6-6.7,5-10.5,7.4-1.3.9-2.3,1.4-2.7,1.8v29.1c0,10.9-2.4,18.5-7.2,22.3-4.8,3.8-10.2,5.5-16.2,5-6-.6-12.8-2.1-20.5-4.4-.6,0-1-.1-1.1-.3-.4-.1-.9-.3-1.3-.4l4.1-19.2h.1ZM53.4,26.8c-1.3-4.7-3.8-12.1-7.5-22.2l18.7-1.8c3.6,8.5,6.2,15.6,8.1,21.6,0,0-19.3,2.4-19.3,2.4Z"/>
  <path class="st0" d="M112.5,151.1c4.1-8.1,6.7-16.9,7.8-26.6,1.1-9.7,1.6-21.2,1.6-34.5v-14.3h-8.7v-19.3h27.7v28.5c0,17-.6,31-1.7,41.5-1.1,10.5-4.1,20.9-8.7,30.8l-18-6.1ZM124.1,47.8c-1.6-8.4-3.3-15.3-5-20.9-1.7-5.5-3.8-11.2-6.4-16.9l17.2-7c3.1,6.5,5.5,12.9,7.4,19,1.8,6.1,3.6,13.3,5,21.7l-18.3,4h.1ZM215.3,155.5h-49.4c-9.1,0-17.3-2.4-24.7-7.1s-14.3-11.1-20.7-19l14.6-12.4c5.8,7.1,11.1,12.2,15.8,15.1s9.7,4.3,15.2,4.3h49.4v19.2h-.1ZM143.6,38.9c1.8-4,3.1-8.5,4.1-13.5s1.8-11.6,2.4-19.9h19c-.7,9.8-1.6,17.5-2.7,22.9-1.1,5.5-2.8,10.4-5,14.5l-17.9-4h0ZM213.4,67.1h-65v-19h65v19ZM210,126.2h-58.4v-48h58.4v48ZM211.9,32.9h-57.1V13.8h57.1v19.2ZM170.7,107.1h20.2v-9.8h-20.2v9.8ZM193.3,58.6h-19.2V4h19.2v54.7Z"/>
</svg>