<?xml version="1.0" encoding="UTF-8"?>
<svg id="_图层_1" data-name="图层 1" xmlns="http://www.w3.org/2000/svg" viewBox="0 0 60 20">
  <polygon points="18.88 19.54 1.82 19.54 1.82 16.12 13.13 4.48 5.46 4.48 5.46 7.46 1.82 7.46 1.82 .84 18.88 .84 18.88 3.79 7.1 15.9 15.24 15.9 15.24 12.79 18.88 12.79 18.88 19.54"/>
  <path d="M39.56,19.54h-18.7L28.88.61h2.65l8.02,18.93ZM26.36,15.9h7.71l-3.85-9.09-3.85,9.09Z"/>
  <path d="M58.18,19.54h-7.62v-6.02l1.1-.47c1.7-.73,2.79-2.41,2.79-4.27,0-2.58-2.1-4.68-4.68-4.68s-4.68,2.1-4.68,4.68c0,1.84,1.1,3.52,2.8,4.28l1.08.48v6h-7.68v-3.64h4.05v-.1c-2.39-1.52-3.88-4.16-3.88-7.03,0-4.59,3.73-8.32,8.32-8.32s8.32,3.73,8.32,8.32c0,2.9-1.49,5.54-3.89,7.04v.09h3.98v3.64Z"/>
</svg>