<?xml version="1.0" encoding="UTF-8"?>
<svg id="_图层_1" xmlns="http://www.w3.org/2000/svg" version="1.1" viewBox="0 0 60 20">
  <!-- Generator: Adobe Illustrator 29.0.0, SVG Export Plug-In . SVG Version: 2.1.0 Build 186)  -->
  <defs>
    <style>
      .st0 {
        fill: #fff;
      }
    </style>
  </defs>
  <polygon class="st0" points="18.9 19.5 1.8 19.5 1.8 16.1 13.1 4.5 5.5 4.5 5.5 7.5 1.8 7.5 1.8 .8 18.9 .8 18.9 3.8 7.1 15.9 15.2 15.9 15.2 12.8 18.9 12.8 18.9 19.5"/>
  <path class="st0" d="M39.6,19.5h-18.7L28.9.6h2.6l8,18.9h0ZM26.4,15.9h7.7l-3.9-9.1-3.9,9.1h0Z"/>
  <path class="st0" d="M58.2,19.5h-7.6v-6l1.1-.5c1.7-.7,2.8-2.4,2.8-4.3s-2.1-4.7-4.7-4.7-4.7,2.1-4.7,4.7,1.1,3.5,2.8,4.3l1.1.5v6h-7.7v-3.6h4c-2.4-1.6-3.9-4.3-3.9-7.1,0-4.6,3.7-8.3,8.3-8.3s8.3,3.7,8.3,8.3-1.5,5.5-3.9,7h0c0,0,4,0,4,0v3.6h0Z"/>
</svg>