<?xml version="1.0" encoding="UTF-8"?>
<svg id="_图层_1" xmlns="http://www.w3.org/2000/svg" version="1.1" xmlns:xlink="http://www.w3.org/1999/xlink" viewBox="0 0 160.9 160">
  <!-- Generator: Adobe Illustrator 29.0.0, SVG Export Plug-In . SVG Version: 2.1.0 Build 186)  -->
  <defs>
    <style>
      .st0 {
        fill: #ff8c19;
      }

      .st1 {
        fill: url(#_未命名的渐变);
      }
    </style>
    <linearGradient id="_未命名的渐变" data-name="未命名的渐变" x1="40.9" y1="81.9" x2="127" y2="81.9" gradientTransform="translate(0 160) scale(1 -1)" gradientUnits="userSpaceOnUse">
      <stop offset="0" stop-color="#fff"/>
      <stop offset="1" stop-color="#f0f0f0"/>
    </linearGradient>
  </defs>
  <rect class="st0" x="7.7" y="6.8" width="146.3" height="146.5" rx="37.2" ry="37.2"/>
  <path class="st1" d="M65.2,50.8c1.9-1.4,16.1-14,.3-22.1-2-1-4.4-.2-5.4,1.7-1,2-.2,4.5,1.8,5.5,5.5,2.9-3.6,12.9-18.4,22.5-2.6,1.7-3.2,4.2-1.7,6.4,1.3,1.8,4.1,1.9,6.3.9,7.2-3.3,48.2-19.3,60.7-18.5.5,0,.6.7.2.9-12.6,7.2-29.5,12-40.7,16.2-.9.5-3.3,1.8-3.3,4.6.5,6.7,11.1,6.3,15.9,7.7-3.3,2.6-7.5,5.3-7.3,8.1-.4,2.8,3.2,4.9,6.7,5.4,15.2,3.7,19,9,14.1,18.1-5.3,9.8-24.1,16.2-36.9,8.3-6.6-4.1-6.3-12.8,2.6-14.5,18.5-3.6,44.4,4.8,60.9,14.3,1.9,1.2,4.2.8,5.4-.9,1.3-1.7.8-3.8-1-5.5-6.3-6-26.9-11.4-31.4-13-9.2-2.3-24.6-5.1-36.8-2.6-15.2,3.1-18.3,19.8-4.9,28.9,13.7,9.3,41.5,4.6,50.1-12.1,4.8-9.4,3-22.7-16.9-27.8,9.9-7.1,8.1-13.3-5.5-15,16.9-5.4,42.4-12.2,42-23.2-.7-16.2-53.4,4.4-56.7,5.8h0Z"/>
</svg>