<?xml version="1.0" encoding="UTF-8"?>
<svg id="_图层_1" xmlns="http://www.w3.org/2000/svg" version="1.1" xmlns:xlink="http://www.w3.org/1999/xlink" viewBox="0 0 611.3 160">
  <!-- Generator: Adobe Illustrator 29.0.0, SVG Export Plug-In . SVG Version: 2.1.0 Build 186)  -->
  <defs>
    <style>
      .st0 {
        fill: #ff8c19;
      }

      .st1 {
        fill: url(#_未命名的渐变);
      }
    </style>
    <linearGradient id="_未命名的渐变" data-name="未命名的渐变" x1="45.8" y1="684.7" x2="144.8" y2="684.7" gradientTransform="translate(0 -606)" gradientUnits="userSpaceOnUse">
      <stop offset="0" stop-color="#fff"/>
      <stop offset="1" stop-color="#f0f0f0"/>
    </linearGradient>
  </defs>
  <path d="M374.3,137.9v-12l51.4-89.5h-49.4v-12.1h64.8v12.1l-51.4,89.3h50.6v12.1h-66Z"/>
  <path d="M515.7,131.3c-.4-1.4-1-3.6-1.8-6.4l-24.6-84.4-24,83.7c-.8,3.2-1.5,5.5-1.9,7-.5,1.5-1.1,3.8-1.9,6.8h-13.5c.8-3.1,1.4-5.4,1.8-6.9.4-1.5,1-3.8,1.8-6.8l28.6-99.9h18.4l28.6,99.6c.8,3.2,1.5,5.5,1.9,7.1.5,1.5,1.1,3.8,1.9,6.9h-13.5c-.8-3-1.4-5.2-1.8-6.6ZM511.1,93.5v10.6h-44.7v-10.6h44.7Z"/>
  <path d="M550.1,131.7c-26.7-23.7-26.7-77.3,0-101.1,12-10.6,28.4-10.7,40.3,0,13.5,11.8,19.8,31.9,19.7,50.5,0,18.7-6.2,38.8-19.8,50.6-12.1,10.6-28.3,10.5-40.3,0ZM582.9,121c19.2-17.5,19.6-61.5.5-79.2-8.7-8.1-17.7-8.1-26.4,0-18.7,17.3-20.3,60,0,78.7s17.3,8.5,25.9.5Z"/>
  <path class="st0" d="M43.8,146.7c-13.3-6.5-23.5-15.5-30.7-27.1-7.2-11.6-10.7-24.8-10.7-39.6s3.6-27.6,10.7-39.2c7.1-11.6,17.4-20.6,30.7-27.3,13.3-6.6,29-9.9,47-9.9s33.5,3.3,46.9,9.9c13.4,6.6,23.6,15.7,30.8,27.3,7.1,11.6,10.7,24.6,10.7,39.2s-3.6,28-10.7,39.6c-7.2,11.6-17.4,20.6-30.8,27.1-13.4,6.5-29,9.7-46.9,9.7s-33.7-3.2-47-9.7Z"/>
  <path class="st1" d="M73.8,47.3c2.2-1.6,18.5-16.1.3-25.4-2.3-1.1-5.1-.2-6.2,2-1.1,2.3-.2,5.2,2.1,6.3,6.3,3.3-4.1,14.8-21.1,25.9-3,2-3.7,4.8-2,7.4,1.5,2.1,4.7,2.2,7.2,1,8.3-3.8,55.4-22.2,69.8-21.3.6,0,.7.8.2,1-14.5,8.3-33.9,13.8-46.8,18.6-1,.6-3.8,2.1-3.8,5.3.6,7.7,12.8,7.2,18.3,8.8-3.8,3-8.6,6.1-8.4,9.3-.5,3.2,3.7,5.6,7.7,6.2,17.5,4.3,21.8,10.3,16.2,20.8-6.1,11.3-27.7,18.6-42.4,9.5-7.6-4.7-7.2-14.7,3-16.7,21.3-4.1,51,5.5,70,16.4,2.2,1.4,4.8.9,6.2-1,1.5-2,.9-4.4-1.1-6.3-7.2-6.9-30.9-13.1-36.1-14.9-10.6-2.6-28.3-5.9-42.3-3-17.5,3.6-21,22.8-5.6,33.2,15.7,10.7,47.7,5.3,57.6-13.9,5.5-10.8,3.4-26.1-19.4-31.9,11.4-8.2,9.3-15.3-6.3-17.2,19.4-6.2,48.7-14,48.3-26.7-.8-18.6-61.4,5.1-65.2,6.7h-.1Z"/>
  <g>
    <path d="M274.8,105.4h-84.2v-11.9h84.2v11.9ZM273.2,51.6h-11.7v-12.4h-57.7v12.4h-11.8v-24.1h81.2v24.1ZM210,127.6c5.7,2.2,10.4,3,14.1,2.4,3.7-.5,5.5-2.9,5.5-7.2v-32.9c1.4-.8,3.6-2.4,6.5-4.7,3-2.3,5.9-4.9,8.7-7.8,2.9-2.9,5.1-5.6,6.6-8.2h-52.6v-11.9h67.7v11c-1.7,4-4,7.7-6.8,11.1-2.8,3.4-5.6,6.2-8.4,8.6-2.8,2.4-5.6,4.6-8.3,6.6-.9.6-1.5,1-1.7,1.3v27c0,7.9-1.8,13.3-5.3,16.2-3.6,2.9-7.5,4.2-11.9,3.8-4.4-.3-9.4-1.3-14.9-2.8-.3,0-.6-.2-.8-.2-.3-.2-.6-.2-.9-.2l2.5-11.9ZM229.1,34.5c-.8-3.2-2.7-8.9-5.4-16.9l11.6-1.5c2.8,7.3,4.7,12.9,5.8,16.9l-11.9,1.5Z"/>
    <path d="M281.9,138.7c3.7-6.6,6.1-13.4,7.2-20.4,1.1-7.1,1.7-15.4,1.7-25.1v-19.5h-8.7v-11.9h20.5v28.1c0,11.9-.6,21.7-1.8,29.5-1.2,7.8-3.8,15.5-7.9,23.3l-11-4.1ZM292.6,50.6c-1.6-6.9-3.1-12.5-4.6-16.8-1.4-4.4-3.1-8.6-5.2-12.7l10.5-4.4c2.3,4.6,4.3,9.3,5.8,14,1.6,4.7,3.1,10.5,4.7,17.4l-11.3,2.5ZM366.2,140.8h-40.8c-7.2,0-13.7-1.9-19.5-5.6-5.8-3.7-11.3-8.8-16.4-15.1l9-7.8c4.9,5.9,9.4,10.2,13.4,12.7,4,2.5,8.5,3.8,13.4,3.8h40.8v11.9ZM306.8,48.2c1.6-4.1,2.9-8.4,3.8-12.9.9-4.5,1.7-10.2,2.2-17.3h11.8c-.6,8-1.4,14.3-2.4,19.2-1,4.8-2.4,9.3-4.3,13.5l-11.1-2.5ZM364.8,67.8h-55.1v-11.8h55.1v11.8ZM361.7,117.9h-48.9v-38h48.9v38ZM363.4,38.6h-47.9v-11.8h47.9v11.8ZM324.7,106h25.1v-14.2h-25.1v14.2ZM345.4,62.4h-11.8V16.4h11.8v46Z"/>
  </g>
</svg>