<?xml version="1.0" encoding="UTF-8"?>
<svg id="_图层_1" xmlns="http://www.w3.org/2000/svg" version="1.1" xmlns:xlink="http://www.w3.org/1999/xlink" viewBox="0 0 210.8 160">
  <!-- Generator: Adobe Illustrator 29.0.0, SVG Export Plug-In . SVG Version: 2.1.0 Build 186)  -->
  <defs>
    <style>
      .st0 {
        fill: #ff8c19;
      }

      .st1 {
        fill: url(#_未命名的渐变);
      }
    </style>
    <linearGradient id="_未命名的渐变" data-name="未命名的渐变" x1="60.4" y1="1522.6" x2="159.3" y2="1522.6" gradientTransform="translate(0 -1444)" gradientUnits="userSpaceOnUse">
      <stop offset="0" stop-color="#fff"/>
      <stop offset="1" stop-color="#f0f0f0"/>
    </linearGradient>
  </defs>
  <path class="st0" d="M58.4,146.7c-13.3-6.5-23.5-15.5-30.7-27.1-7.2-11.6-10.7-24.8-10.7-39.6s3.6-27.6,10.7-39.2c7.1-11.6,17.4-20.6,30.7-27.3,13.3-6.6,29-9.9,47-9.9s33.5,3.3,46.9,9.9c13.4,6.6,23.6,15.7,30.8,27.3,7.1,11.6,10.7,24.6,10.7,39.2s-3.6,28-10.7,39.6c-7.2,11.6-17.4,20.6-30.8,27.1-13.4,6.5-29,9.7-46.9,9.7s-33.7-3.2-47-9.7h0Z"/>
  <path class="st1" d="M88.4,47.3c2.2-1.6,18.5-16.1.3-25.4-2.3-1.1-5.1-.2-6.2,2-1.1,2.3-.2,5.2,2.1,6.3,6.3,3.3-4.1,14.8-21.1,25.9-3,2-3.7,4.8-2,7.4,1.5,2.1,4.7,2.2,7.2,1,8.3-3.8,55.4-22.2,69.8-21.3.6,0,.7.8.2,1-14.5,8.3-33.9,13.8-46.8,18.6-1,.6-3.8,2.1-3.8,5.3.6,7.7,12.8,7.2,18.3,8.8-3.8,3-8.6,6.1-8.4,9.3-.5,3.2,3.7,5.6,7.7,6.2,17.5,4.3,21.8,10.3,16.2,20.8-6.1,11.3-27.7,18.6-42.4,9.5-7.6-4.7-7.2-14.7,3-16.7,21.3-4.1,51,5.5,70,16.4,2.2,1.4,4.8.9,6.2-1,1.5-2,.9-4.4-1.1-6.3-7.2-6.9-30.9-13.1-36.1-14.9-10.6-2.6-28.3-5.9-42.3-3-17.5,3.6-21,22.8-5.6,33.2,15.7,10.7,47.7,5.3,57.6-13.9,5.5-10.8,3.4-26.1-19.4-31.9,11.4-8.2,9.3-15.3-6.3-17.2,19.4-6.2,48.7-14,48.3-26.7-.8-18.6-61.4,5.1-65.2,6.7h-.2q0,0,0-.1Z"/>
</svg>