<?xml version="1.0" encoding="UTF-8"?>
<svg id="_图层_1" xmlns="http://www.w3.org/2000/svg" version="1.1" xmlns:xlink="http://www.w3.org/1999/xlink" viewBox="0 0 88.9 88.9">
  <!-- Generator: Adobe Illustrator 29.0.0, SVG Export Plug-In . SVG Version: 2.1.0 Build 186)  -->
  <defs>
    <style>
      .st0 {
        fill: url(#_未命名的渐变_141);
      }

      .st1 {
        fill: #ff8c19;
      }

      .st2 {
        fill: url(#_未命名的渐变_14);
      }
    </style>
    <linearGradient id="_未命名的渐变_14" data-name="未命名的渐变 14" x1="39.6" y1="44.2" x2="50" y2="44.2" gradientUnits="userSpaceOnUse">
      <stop offset="0" stop-color="#fff"/>
      <stop offset="1" stop-color="#f0f0f0"/>
    </linearGradient>
    <linearGradient id="_未命名的渐变_141" data-name="未命名的渐变 14" x1="44.9" y1="44.2" x2="44.9" y2="44.2" xlink:href="#_未命名的渐变_14"/>
  </defs>
  <g>
    <path d="M56.4,10.9h-2.2v-2.2h2.1c.1,0,0,.1.1.3,0,.6,0,1.4,0,1.9h0Z"/>
    <path d="M28.2,6.5c0-.6,0-1.4,0-1.9,0-.1,0-.2.1-.3h17.2v2.1c0,.1.1,0,.3.1.6,0,1.3,0,1.9,0,0-.6,0-1.4,0-1.9,0-.1,0-.2.1-.3h6.4v2.1h-.1c0,.1-2,.1-2,.1h-.1v2.1h-.1c0,.1-2,.1-2,.1h-.1v-2.2h-2.1v2.2h-2.2v2.1h.1c0,.1,2,.1,2,.1.1,0,0-.1.1-.3,0-.6,0-1.3,0-1.9h2.1v2.1h-.1c0,.1-2,.1-2,.1v2h-.1c0,.1-4.2.1-4.2.1-.1,0,0,.1-.1.3-.1,1.2,0,2.9,0,4.1h-2.2c0-1.2.1-2.9,0-4.1,0-.1,0-.2-.1-.3h-2v-2.1h2.1v-2.1h.1c0-.1,2-.1,2-.1h.1v-2.1h-.1c0-.1-4.2-.1-4.2-.1v2.1c0,.1-.1,0-.3.1-1.1.1-2.9,0-4.1,0,0-.6,0-1.4,0-1.9,0-.1,0-.2-.1-.3h-2.1v2.1c0,.1.1,0,.3.1.6,0,1.3,0,1.9,0,0,.6,0,1.4,0,1.9,0,.1,0,.2-.1.3h-4.2v-4.4h-2.2c0,.6,0,1.4,0,1.9,0,.1,0,.2-.1.3h-2.1v4.3h-2.2v2.2h-2.2V4.5s.2-.2.2-.2h4.2v2.1c0,.1.1,0,.3.1.6,0,1.3,0,1.9,0h0Z"/>
    <path d="M60.7,8.7h-2.1c0-.2,0-.4,0-.5,0-.9-.1-2.7,0-3.5,0-.1,0-.2.1-.3h8.5s.1.1.1.1v1.9h-.1c0,.1-2,.1-2,.1h-.1v2.1h.1c0,.1,2,.1,2,.1h.1v4.2h-.1c0,.1-2,.1-2,.1h-.1v2.2h2.1c0,0,0,.2,0,.2v6.2c0,.2-.2.1-.3.1h-1.9v4.3h-.1c0,.1-2,.1-2,.1h-.1v-4.3c0,0,.2,0,.2,0h2v-4.2h-.1c0-.1-2-.1-2-.1h-.1v2.1h-.1c0,.1-2,.1-2,.1-.1,0,0-.1-.1-.3-.1-1.2,0-2.9,0-4.1.6,0,1.4,0,1.9,0,.1,0,.2,0,.3-.1v-2c0-.1-.1,0-.3-.1-.6,0-1.3,0-1.9,0,0-1.4,0-2.9,0-4.3.6,0,1.4,0,1.9,0,.1,0,.2,0,.3-.1v-2h-.1c0-.1-2-.1-2-.1-.1,0,0,.1-.1.3,0,.6,0,1.3,0,1.9h0Z"/>
    <path d="M17.4,54.2v2.2c-.3,0-2.1,0-2.1,0,0-.7,0-1.4,0-2.1.7,0,1.5,0,2.2,0Z"/>
    <path d="M8.7,45.5c-.7,0-1.4,0-2.1,0-.1,0,0,1.8,0,2.1-.6,0-1.4,0-1.9,0-.1,0-.2,0-.3-.1v-4.2h.1c0-.1,4.2-.1,4.2-.1.1,0,0,.1.1.3,0,.6,0,1.4,0,1.9h0Z"/>
    <path d="M30.4,13h6.5v2.2h2.1c.1,0,0,.1.1.3,0,.6,0,1.4,0,1.9h-2.2v2.1h.1c0,.1,1.9.1,1.9.1,0,0,.2-.2.2-.3,0-.5,0-1.4,0-1.9h2.1c0,.4,0,1.9,0,2.1,0,0,.2,0,.3.1.5,0,1.3,0,1.9,0v2.1h-4.3v4.4h2.1c0-.6,0-1.4,0-1.9,0-.1,0-.2.1-.3h2.1v2.2h-2.2c0,.5,0,1.5,0,1.9,0,0,.1.3.2.3h6.4v2.1h2.1v-4.3h-4.3v-2.1h.1c0-.1,2-.1,2-.1h.1v-2s-.2-.2-.2-.2h-2v-2.1c.4,0,1.9,0,2.1,0,0,0,0-.2.1-.3,0-.5,0-1.3,0-1.9h2.1v2s.2.2.2.2h2v-8.6c0-.1.1,0,.3-.1.6,0,1.3,0,1.9,0v2.1h2.1c.1,0,0-.1.1-.3,0-.5,0-1.3,0-1.9.7,0,1.4,0,2.1,0v2c.8,0,1.5,0,2.2,0v2.2h-2.1v8.7h2.1v4.3h.1c0,.1,4.2.1,4.2.1h.1v2.1c-.9.2-1.8,0-2.7,0s-.6,0-.8,0c-.2,0-.5.1-.8,0h-.1v2.1h-2.1v2.2h2.1v2.1c0,.1.1,0,.3.1,1.2.1,2.9,0,4.1,0,0,.6,0,1.4,0,1.9,0,.1,0,.2-.1.3h-4.3v10.7c0,.1.1,0,.3.1.6,0,1.3,0,1.9,0v6.6h2.2v-2.2h2.2v8.7h4.3v-4.3h-2s-.2-.2-.2-.2v-1.9h.1c0-.1,6.3-.1,6.3-.1h.1v2s-.2.2-.2.2h-2v2.1h2.2v2.1h-.1c0,.1-2,.1-2,.1h-.1v2.1h.1c0,.1,2,.1,2,.1h.1v8.6h.1c0,.1,2,.1,2,.1v2.1h.1c0,.1,2,.1,2,.1h.1v-4.3h-.1c0-.1-2-.1-2-.1h-.1v-2s.2-.2.2-.2h4.2v-2.1h2.2v6.4h-.1c0,.1-2,.1-2,.1h-.1v2.1h.1c0,.1,2,.1,2,.1h.1v4.2c0,.1-.1,0-.3.1-.6,0-1.3,0-1.9,0,0,.6,0,1.4,0,1.9,0,.1,0,.2.1.3h2.1v2.1h-.1c0,.1-4.2.1-4.2.1h-.1v-4.3c0-.1.1,0,.3-.1.6,0,1.3,0,1.9,0,0-.6,0-1.4,0-1.9,0-.1,0-.2-.1-.3h-4.3v-2.1h-4.3v2.1h2s.2.2.2.2v4.1h-.1c0,.1-2,.1-2,.1h-.1v-2.1c0-.1-.1,0-.3-.1-.6,0-1.4,0-1.9,0v-4.3h-2.2v2.1h-2.1c0-.7,0-1.4,0-2.1h-2.1v-8.6h-.1c0-.1-1.9-.1-1.9-.1,0,0-.2,0-.2-.1v-2.1c.6,0,1.4,0,1.9,0,.1,0,.2,0,.3-.1v-2c0-.1-.1,0-.3-.1-.6,0-1.3,0-1.9,0,0-.6,0-1.4,0-1.9,0-.1,0-.2-.1-.3h-4.2v2.2c1.4,0,2.9,0,4.3,0v2.2c-.6,0-1.4,0-1.9,0-.1,0-.2,0-.3.1v2h-.1c0,.1-2,.1-2,.1v2h-.1c0,.1-2.1.1-2.1.1v-2.1h2.1v-4.4h-2.1c0-.6,0-1.4,0-1.9,0-.1,0-.2.1-.3h2v-2.1h-2.1v-2.1h-.1c0-.1-4.2-.1-4.2-.1h-.1v2.1h-.1c0,.1-4.2.1-4.2.1v2h-.1c0,.1-6.3.1-6.3.1h-.1v2.2h-2.1v-2s-.2-.2-.2-.2h-4.2v2.1h-.1c0,.1-4.2.1-4.2.1h0c-.2-.5.2-2,0-2.1-.7,0-1.4,0-2,0,0,.6,0,1.4,0,1.9,0,.1,0,.2-.1.3h-2.1v-2.1c0-.1.1,0,.3-.1.6,0,1.4,0,1.9,0,0-.6,0-1.3,0-1.9,0-.1,0-.2-.1-.3h-4.3v4.3h-2.1c-.1.7-.1,1.5,0,2.2h2.1v4.2h.1c0,.1,2,.1,2,.1h.1v2.1c0,.1.1,0,.3.1.6,0,1.3,0,1.9,0v2.2c-1.5,0-2.9,0-4.4,0,0,.6,0,1.4,0,1.9,0,.1,0,.2.1.3h2.1v4.2h-.1c0,.1-2,.1-2,.1h-.1v2.1h-.1c0,.1-2,.1-2,.1h-.1v-4.2s.2-.2.2-.2h2v-2.1h-2s-.2-.2-.2-.2v-1.9c0-.1.1,0,.3-.1.6,0,1.3,0,1.9,0,0-.6,0-1.4,0-1.9,0-.1,0-.2-.1-.3h-2.1v-4.3h-6.5v-2.1h.1c0-.1,4.2-.1,4.2-.1h.1v-2.1h-.1c0-.1-8.6-.1-8.6-.1v-4.2h-.1c0-.1-2.1-.1-2.1-.1v2c0,.1-.1,0-.3.1-.6,0-1.3,0-1.9,0v2.2c.3,0,2.1,0,2.1,0,0,.7,0,1.4,0,2.1h4.3v2.1c0,0-.2,0-.2,0h-4c-.1,0,0-.1-.1-.3,0-.6,0-1.3,0-1.9h-2.2c0,.6,0,1.4,0,1.9,0,.1,0,.2-.1.3h-1.9s-.2-.2-.2-.2v-1.9c0-.1.1,0,.3-.1.6,0,1.3,0,1.9,0v-2.2c-.6,0-1.4,0-1.9,0-.1,0-.2,0-.3-.1v-2c0-.1.1,0,.3-.1.6,0,1.3,0,1.9,0v-2.1h-2s-.2-.2-.2-.2v-6.3h.1c0-.1,2-.1,2-.1h.1v2.1h.1c0,.1,2,.1,2,.1h.1v-4.3c0,0-.2,0-.2,0h-2v-2.1c.3,0,2.1,0,2.1,0,0-.7,0-1.4,0-2.1.6,0,1.4,0,1.9,0,.1,0,.2,0,.3-.1v-4.2h-.1c0-.1-4.3-.1-4.3-.1v-2.1h-2s-.2-.2-.2-.2v-4.1c0-.1.1,0,.3-.1,1.2-.1,2.9,0,4.1,0,0,1.2-.1,3,0,4.1,0,.1,0,.2.1.3h2.1v2.1h2.1v-2h.1c0-.1,2.1-.1,2.1-.1v2.1c-.6,0-1.4,0-1.9,0-.1,0-.2,0-.3.1v2c0,.1.1,0,.3.1.6,0,1.3,0,1.9,0,0,.7,0,1.4,0,2.1,0,.1,1.8,0,2.1,0,0,.6,0,1.4,0,1.9,0,.1,0,.2.1.3h2.1v-2.1c0-.1-.1,0-.3-.1-.6,0-1.3,0-1.9,0v-2.2c.6,0,1.4,0,1.9,0,.1,0,.2,0,.3-.1v-1.9s-.2-.2-.2-.2h-1.9c-.1,0,0,.1-.1.3,0,.6,0,1.3,0,1.9h-2.2v-2.2h2.2v-2.1h2c0,0,.2-.2.2-.3,0-.5,0-1.4,0-1.9-.6,0-1.4,0-1.9,0-.1,0-.2,0-.3-.1v-2h.1c0-.1,2-.1,2-.1.1,0,0,.1.1.3,0,.6,0,1.4,0,1.9,1.4,0,2.9,0,4.3,0v2.2c-.6,0-1.4,0-1.9,0-.1,0-.2,0-.3.1v4.1c0,.1.1,0,.3.1.6,0,1.4,0,1.9,0,0,.6,0,1.4,0,1.9,0,.1,0,.2-.1.3h-2.1v4.2h.1c0,.1,2.1.1,2.1.1v-2c0-.1.1,0,.3-.1.6,0,1.3,0,1.9,0v2.1h2.1c.1,0,0-.1.1-.3,0-.5,0-1.3,0-1.9.7,0,1.3,0,2,0,.4-.6,0-1.5.1-2.2h-2.1v-6.5h5.6v2h-.1c0,.1-3.2.1-3.2.1-.1,0,0,.1-.1.3-.1,1,0,2.6,0,3.7,0,.1,0,.3,0,.4.7,0,1.4,0,2.1,0,0-.6,0-1.4,0-1.9,0-.1,0-.2.1-.3h1.2v2.1c-.3.2-.9,0-1.3.1,0,1.4,0,2.9,0,4.3h-2.1v2.2h2.1v-2.1c.3-.2.9-.1,1.3,0v2.1h-1.3v4.3h.1c0,.1,4.2.1,4.2.1h.1v2.1h4.3v-2.1h-2.1c0-.4-.2-1,0-1.3h2c.3.3,0,.8,0,1.1,0,0,0,.1,0,.2h4.2c.3-.3-.1-1.1.2-1.3,0,0,1.6,0,1.9,0,.1,0,.2,0,.3.1v1.1c0,.1.1,0,.3.1.3,0,1.4,0,1.7,0,0,0,.1,0,.2-.1v-1.1c0-.1.1,0,.3-.1,1.1-.1,2.1.2,3.2-.3.2,0,.8-.6.8-.6h6.6v-2.1h-.1c0-.1-5.4-.1-5.4-.1h-.1v-2.1c0,0,.2,0,.2,0h3.2v-13h-2.1v6.4h-.1c0,.1-1.1.1-1.1.1-.1,0,0-.1-.1-.3-.2-1.8.2-4.1,0-6v-.3h1.3v-4.3h-.1c0-.1-2-.1-2-.1h-.1v2.1h-.1c-.2,0-.6-.4-.8-.5,0,0-.7-.3-.7-.3h-2.7c-.2-.4,0-1-.2-1.3h-2v-2.1h-2.2v3.3h-.1c0,.1-4.2.1-4.2.1-.2-.4,0-1-.2-1.3h-2v-4.2h-.1c0-.1-2.1-.1-2.1-.1v2.1h-2.2v2.2h-6.4c-.1,0,0,.1-.1.3,0,.6,0,1.3,0,1.9-.7,0-1.4,0-2.1,0-.1,0,0,1.8,0,2.1h-2.2c0-1.5,0-2.9,0-4.4.6,0,1.4,0,1.9,0,.1,0,.2,0,.3-.1v-2c-.7,0-1.5-.2-2.2,0,0,.7,0,1.4,0,2.1-2.9,0-5.8,0-8.7,0,0-1.4,0-2.8,0-4.2,0-.1,1.8,0,2.1,0v2.1c.7,0,1.5.2,2.2-.1v-1.9c0-.1-.1,0-.3-.1-.6,0-1.4,0-1.9,0,0-.3,0-2.1,0-2.1,1.4,0,2.8,0,4.2,0,0,.5,0,1.5,0,1.9,0,0,.1.3.2.3h4.2v-2.1c0-.1-.1,0-.3-.1-1.2-.1-2.9,0-4.1,0,0-.7,0-1.5,0-2.2h2.2v-2.1h-.1c0-.1-1.7-.1-1.7-.1,0,0-.2,0-.3,0h0c0,0,0,2.1,0,2.1h0c0,.1-4.3.1-4.3.1v-2.1h.1c0-.1,4.2-.1,4.2-.1v-4.2h.1c0-.1,2.1-.1,2.1-.1v4.3h2.2v-6.4h.1c0-.1,2-.1,2-.1h.1v6.5h4.3v-2.1h-2c-.4,0,0-1.7-.2-2v-.2h2.2v2.1h.1c0,.1,2,.1,2,.1h.1v-2.1h.1c0-.1,2-.1,2-.1h.1v-2.1h-.1c0-.1-6.3-.1-6.3-.1-.1,0,0-.1-.1-.3,0-.6,0-1.3,0-1.9h-2.2v-2.1h2.1c.1,0,0,.1.1.3,0,.5,0,1.3,0,1.9h0ZM56.4,26v-8.6h-.1c0-.1-2-.1-2-.1h-.1v4.3h-4.2s-.2.2-.2.2v1.9h.1c0,.1,4.2.1,4.2.1h.1v6.5c.6,0,1.4,0,1.9,0,.1,0,.2,0,.3-.1v-2h2.1v-2s0,0,0,0h0c0-.1-2.1-.1-2.1-.1h0ZM34.7,23.8c.6,0,1.4,0,1.9,0,.1,0,.2,0,.3-.1v-1.9s-.1-.1-.1-.1c-.2,0-2,0-2,0,0,.7,0,1.4,0,2.1-1.4,0-2.9,0-4.3,0v2.1h-.1c0,.1-2,.1-2,.1h-.1v4.3h2.1c0-.2,0-.4,0-.6,0-.4-.2-1.1,0-1.5h2.1v-2.1h.1c0-.1,2-.1,2-.1.1,0,0-.1.1-.3,0-.6,0-1.3,0-1.9h0ZM17.4,49.8v-2.1h-4.2s-.2-.2-.2-.2v-2h-2.1v4.3c2.2,0,4.3,0,6.5,0v2.2c-.3,0-2.1,0-2.1,0,0,.7,0,1.4,0,2.1-.6,0-1.4,0-1.9,0-.1,0-.2,0-.3-.1v-2h-.1c0-.1-1.9-.1-1.9-.1h-.1v4.3h.1c0,.1,2,.1,2,.1v2s.1.1.2.2h4.2v-2.1c.6,0,1.4,0,1.9,0,.1,0,.2,0,.3-.1v-2c0-.1-.1,0-.3-.1-.6,0-1.3,0-1.9,0v-2.2h2.2v2.2h2.1v4.2c0,.3.6.1.8.1.5,0,1,0,1.4,0v-4.2h.1c0-.1,2-.1,2-.1h.1v2.1h.1c0,.1,4.1.1,4.1.1.3-.3.1-.7.1-1.1,0-.9,0-1.8,0-2.6s.1-.4,0-.7c-3.6,0-7.2,0-10.8,0,0-.4,0-1.9,0-2.1,0,0-.2,0-.3-.1-.5,0-1.3,0-1.9,0h0ZM6.5,58.5c.5,0,1.1,0,1.6,0,.1,0,.5.2.5,0v-2h-.1c0-.1-2-.1-2-.1h-.1c0,.1,0,2.1,0,2.1ZM47.7,58.5v-2h-.1c0-.1-2.1-.1-2.1-.1v2.1h2.2ZM60.7,56.4h-2.1v2.1h2.1v-2.1ZM17.4,60.7h2.2v-2h-.1c0-.1-2.1-.1-2.1-.1,0,0,0,2.1,0,2.1ZM73.7,67.2h-6.5v6.4h.1c0,.1,6.3.1,6.3.1h.1c0-.1,0-6.5,0-6.5Z"/>
    <path d="M47.7,17.4h-2.2c0-.6,0-1.4,0-1.9,0-.1,0-.2.1-.3h2c.1,0,0,.1.1.3,0,.6,0,1.4,0,1.9h0Z"/>
    <path d="M45.5,17.4v2.2h-2.2v-2.2c.7,0,1.5,0,2.2,0Z"/>
    <path d="M8.7,32.5c.6,0,1.4,0,1.9,0,.1,0,.2,0,.3-.1v-8.5h-.1c0-.1-4.2-.1-4.2-.1h-.1v-2.1h.1c0-.1,4.1-.1,4.1-.1,0,0,.2.2.2.2v2h2.1v-2s.2-.2.2-.2h2v4.3h-.1c0,.1-2,.1-2,.1h-.1v6.4c0,.1.1,0,.3.1.6,0,1.3,0,1.9,0,0,.5,0,1.5,0,2,0,0,0,.1-.1.2-2.1,0-4.2,0-6.4,0v-2.2c-1.2,0-3,.1-4.1,0-.1,0-.2,0-.3-.1v-1.9c0,0,.3-.2.4-.2h1.8v-4.2h.1c0-.1,2-.1,2-.1v.3c.1,2.1.1,4.2.1,6.2h0Z"/>
    <path d="M69.4,23.8c0-.5,0-1.5,0-1.9,0,0,.1-.3.2-.3h2v2.2h-2.2v2.2c.6,0,1.4,0,1.9,0,.1,0,.2,0,.3.1v2c0,.1-.1,0-.3.1-.6,0-1.3,0-1.9,0v2.1h1.6c0,0,.6-.1.6.1v4.2c0,.1-.1,0-.3.1-.6,0-1.3,0-1.9,0,0,.6,0,1.4,0,1.9,0,.1,0,.2.1.3h4.3v-2.1h.1c0-.1,2-.1,2-.1h.1v-2.1h-.1c0-.1-2.1-.1-2.1-.1v-4.3c1.4,0,2.9,0,4.3,0,0-.6,0-1.4,0-1.9,0-.1,0-.2.1-.3h2.1v2.1c0,.1-.1,0-.3.1-.6,0-1.3,0-1.9,0v2.1h4.4v2.2c-.6,0-1.4,0-1.9,0-.1,0-.2,0-.3.1v2h.1c0,.1,2,.1,2,.1.1,0,0-.1.1-.3,0-.6,0-1.3,0-1.9.6,0,1.4,0,1.9,0,.1,0,.2,0,.3.1v4.2h-.1c0,.1-6.3.1-6.3.1h-.1v-2.2h-2.1v4.4h2.1v4.2h.1c0,.1,2.1.1,2.1.1v-2.1h.1c0-.1,2.1-.1,2.1-.1v-2.1h2.2v8.6c0,0-.2,0-.2,0h-2v2.1h-2.2v-4.3h-2.2v2.1h-.1c0,.1-1.9.1-1.9.1v-.3c-.1-2.8-.1-5.6-.1-8.4h-4.4v4.2h.1c0,.1,2,.1,2,.1h.1v6.4h-.1c0,.1-4.1.1-4.1.1,0,0-.2.2-.2.3,0,.5,0,1.4,0,1.9.6,0,1.4,0,1.9,0,.1,0,.2,0,.3.1v2h-.1c0,.1-2,.1-2,.1-.1,0,0-.1-.1-.3,0-.6,0-1.4,0-1.9-.7,0-1.4,0-2.1,0,0,0,0-1.6,0-1.9,0-.1,0-.2-.2-.2-1.4,0-2.8,0-4.2,0v-2.1h2.2v-2.2h2.2v2.1h.1c0,.1,4.1.1,4.1.1h.1v-2.1h-.1c0-.1-4.2-.1-4.2-.1h0c0-.8.1-1.5,0-2.2h-2.1v-2.1h.1c0-.1,2-.1,2-.1h.1v-2.1h2.1v-2.2h-4.3c0-1.2-.1-2.9,0-4.1,0-.1,0-.2.1-.3h1.9s.2.2.2.2v2h2.1c0-1.4,0-2.9,0-4.3-.5,0-.9,0-1.4,0-.2,0-.8.2-.8,0v-2.1h2.1v-2.2h-2.1v-2.1c0-.1.1,0,.3-.1.5,0,1.3,0,1.9,0h0ZM78,30.4c-.7-.1-1.4,0-2.1,0v2.1h2.1v-2.1Z"/>
    <path d="M26,39.1c0,1.4,0,2.8,0,4.2,0,.1-1.8,0-2.1,0,0-1.4,0-2.9,0-4.3.7,0,1.5,0,2.2,0Z"/>
    <path d="M28.2,34.7h4.3v2.1c0,.1-.1,0-.3.1-1.1.1-2.8,0-4,0v-2.2h0Z"/>
    <path d="M28.2,36.9v2.2h-2.2v-2.2c.7,0,1.5,0,2.2,0Z"/>
    <path d="M56.4,62.9c0,.6,0,1.4,0,1.9,0,.1,0,.2-.1.3h-2.1v4.3h-2.2v2.2h-4.3v-2.2h4.3v-2.1c-1.4,0-2.9,0-4.3,0v-4.4h4.3v-2.1h.1c0-.1,2-.1,2-.1h.1v2.1c0,.1.1,0,.3.1.6,0,1.3,0,1.9,0h0Z"/>
    <path d="M28.2,71.5v-6.5h2.2v6.5h2.1v-4.2h.1c0-.1,2-.1,2-.1h.1v-2.1h.1c0-.1,6.4-.1,6.4-.1v2.1h-.1c0,.1-2,.1-2,.1v2.1h4.3v-4.2h.1c0-.1,2-.1,2-.1h.1v2.1c0,.1.1,0,.3.1.6,0,1.3,0,1.9,0v2.1c-.7,0-1.4,0-2.1,0-.1,0,0,1.8,0,2.1-1.4,0-2.9,0-4.3,0-.1,0,0,1.8,0,2.1h2.2v4.3h-2.2v2.1h.1c0,.1,6.3.1,6.3.1h.1v2.1h-.1c0,.1-2,.1-2,.1h-.1v2.1h-.1c0,.1-2,.1-2,.1h-.1v-2.2h-4.3v-4.3h.1c0-.1,2-.1,2-.1v-4.3h-2.1c0,.5,0,1.5,0,1.9,0,0-.1.3-.2.3h-2v-2.2h2.2c0-.6,0-1.4,0-1.9,0-.1,0-.2-.1-.3h-4.3v4.3h-.1c0,.1-2,.1-2,.1h-.1v-2.2h-2.1v2.1h.1c0,.1,2,.1,2,.1v2.1c.6,0,1.4,0,1.9,0,.1,0,.2,0,.3.1v2h-.1c0,.1-2,.1-2,.1-.1,0,0-.1-.1-.3,0-.6,0-1.3,0-1.9-1.4,0-2.9,0-4.3,0v-4.3h2.1v-2.2h-2.1,0ZM36.9,67.2h-2.2v2.1h2.2c0-.1,0-2.1,0-2.1Z"/>
    <path d="M47.7,71.5c0,.6,0,1.4,0,1.9,0,.1,0,.2-.1.3h-2c-.1,0,0-.1-.1-.3,0-.6,0-1.4,0-1.9h2.2Z"/>
    <path d="M71.5,80.2c0,1.2.1,3,0,4.1,0,.1,0,.2-.1.3h-6.4v-2.1h-.1c0-.1-2-.1-2-.1h-.1v-2.1h-.1c0-.1-2-.1-2-.1h-.1v4.3h-.1c0,.1-10.6.1-10.6.1,0,0-.2-.2-.2-.2v-8.4h.1c0-.1,2.1-.1,2.1-.1v2h.1c0,.1,2.1.1,2.1.1v-6.4h.1c0-.1,2-.1,2-.1h.1v2.1h.1c0,.1,2,.1,2,.1v-2s0-.1,0-.2h4.3v2.1h-.1c0,.1-2,.1-2,.1h-.1v2s.2.2.2.2h2v2.1h4.4c0,1.5,0,2.9,0,4.4h2.1v-2.1c0-.1.1,0,.3-.1.6,0,1.4,0,1.9,0h0ZM54.3,80.2h-.1v2.1h.1c0,.1,2,.1,2,.1h.1v-2.1h-.1c0-.1-2-.1-2-.1Z"/>
    <path d="M28.2,45.5v2.2h-2.2c0-.3,0-2.1,0-2.1.7,0,1.4,0,2.1,0Z"/>
    <path d="M4.4,4.3h15.1v15.1h-.1c0,.1-15,.1-15,.1h-.1V4.4h.1ZM6.6,6.5h-.1v10.7h.1c0,.1,10.6.1,10.6.1h.1V6.6h-.1c0-.1-10.6-.1-10.6-.1Z"/>
    <path d="M69.5,4.3h15.1v15.1h-.1c0,.1-15,.1-15,.1h-.1V4.4h.1ZM71.7,6.5h-.1v10.7h.1c0,.1,10.6.1,10.6.1h.1V6.6h-.1c0-.1-10.6-.1-10.6-.1Z"/>
    <path d="M4.4,69.4h15.1v15.1h-.1c0,.1-15,.1-15,.1h-.1v-15.1h.1ZM6.6,71.5h-.1v10.7h.1c0,.1,10.6.1,10.6.1h.1v-10.7h-.1c0-.1-10.6-.1-10.6-.1Z"/>
    <path d="M80.2,56.4c0-.6,0-1.4,0-1.9,0-.1,0-.2-.1-.3h-6.4v-2.1h.1c0-.1,2-.1,2-.1h.1v-2.1h.1c0-.1,1.9-.1,1.9-.1h.1v2.1h.1c0,.1,6.3.1,6.3.1h.1v6.4s-.2.2-.2.2h-2v2.1h2.2v4.3h-.1c0,.1-4.2.1-4.2.1h-.1v2.1h-.1c0,.1-1.9.1-1.9.1,0,0-.2-.2-.2-.2v-4.1h.1c0-.1,2-.1,2-.1h.1v-2.1h-.1c0-.1-2-.1-2-.1h-.1v-4.2c0-.1.1,0,.3-.1.6,0,1.4,0,1.9,0v2.1h2.2v-2c0-.1-.1,0-.3-.1-.6,0-1.4,0-1.9,0h0Z"/>
    <path d="M73.8,21.7h10.6s.2.2.2.2v6.3h-.1c0,.1-2,.1-2,.1h-.1v-4.3h-.1c0-.1-6.3-.1-6.3-.1h-.1v2.1h-.1c0,.1-2,.1-2,.1h-.1v-4.3h.1q0-.1,0-.1Z"/>
    <polygon points="32.6 82.4 36.8 82.4 36.9 82.5 36.9 84.5 36.8 84.6 32.6 84.6 32.5 84.5 32.5 82.5 32.6 82.4"/>
    <path d="M30.3,80.2c0,0,0,1.7,0,1.9,0,.1,0,.2-.1.3h-2.1v-2.1h.1c0-.1,2-.1,2-.1h0Z"/>
    <polygon points="45.5 78 45.5 75.9 47.6 75.9 47.7 76 47.7 77.9 47.6 78 45.5 78"/>
    <path d="M55.2,45.5h1.1c.1,0,0,.1.1.3,0,.3,0,1.5,0,1.8,0,0,0,.1-.1.2h-1.1c-.1,0,0-.1-.1-.3,0-.3,0-1.5,0-1.8,0,0,0-.1.1-.2Z"/>
    <polygon points="69.5 69.4 71.4 69.4 71.5 69.5 71.5 71.4 71.4 71.5 69.5 71.5 69.4 71.4 69.4 69.5 69.5 69.4"/>
    <rect x="8.7" y="8.7" width="6.5" height="6.5"/>
    <rect x="73.7" y="8.7" width="6.5" height="6.5"/>
    <rect x="8.7" y="73.7" width="6.5" height="6.5"/>
  </g>
  <g>
    <rect class="st1" x="35.7" y="35.6" width="17.6" height="17.6" rx="8.8" ry="8.8"/>
    <g>
      <path class="st2" d="M42.6,40.9c.2-.2,1.9-1.7,0-2.7s-.5,0-.7.2,0,.5.2.7c.7.3-.4,1.6-2.2,2.7s-.4.5-.2.8.5.2.8.1c.9-.4,5.8-2.3,7.3-2.2s0,0,0,.1c-1.5.9-3.5,1.4-4.9,1.9-.1,0-.4.2-.4.6,0,.8,1.3.8,1.9.9-.4.3-.9.6-.9,1,0,.3.4.6.8.7,1.8.4,2.3,1.1,1.7,2.2s-2.9,1.9-4.4,1-.8-1.5.3-1.7c2.2-.4,5.3.6,7.3,1.7.2.1.5,0,.7-.1s.1-.5-.1-.7c-.8-.7-3.2-1.4-3.8-1.6-1.1-.3-3-.6-4.4-.3s-2.2,2.4-.6,3.5,5,.5,6-1.5.4-2.7-2-3.3c1.2-.8,1-1.6-.7-1.8,2-.7,5.1-1.5,5-2.8,0-1.9-6.4.5-6.8.7Z"/>
      <path class="st0" d="M44.9,44.2h0s0,0,0,0Z"/>
    </g>
  </g>
</svg>