<?xml version="1.0" encoding="UTF-8"?>
<svg id="_图层_1" data-name="图层_1" xmlns="http://www.w3.org/2000/svg" version="1.1" xmlns:xlink="http://www.w3.org/1999/xlink" viewBox="0 0 757.92 160">
  <!-- Generator: Adobe Illustrator 29.0.0, SVG Export Plug-In . SVG Version: 2.1.0 Build 186)  -->
  <defs>
    <style>
      .st0 {
        fill: #ff8c19;
      }

      .st1 {
        fill: url(#_未命名的渐变_14);
      }
    </style>
    <linearGradient id="_未命名的渐变_14" data-name="未命名的渐变 14" x1="40.93" y1="78.08" x2="126.99" y2="78.08" gradientUnits="userSpaceOnUse">
      <stop offset="0" stop-color="#fff"/>
      <stop offset="1" stop-color="#f0f0f0"/>
    </linearGradient>
  </defs>
  <g>
    <path d="M265.42,104.06h-82.62v-11.71h82.62v11.71ZM263.95,51.22h-11.59v-12.05h-56.48v12.05h-11.59v-23.64h79.67v23.64ZM201.9,125.77c5.61,2.05,10.21,2.8,13.81,2.27,3.6-.53,5.4-2.88,5.4-7.05v-32.16c1.36-.83,3.5-2.39,6.42-4.66,2.92-2.27,5.78-4.83,8.58-7.67,2.8-2.84,4.92-5.47,6.36-7.9h-51.48v-11.82h66.48v10.91c-1.67,3.86-3.88,7.44-6.65,10.74-2.77,3.3-5.49,6.12-8.18,8.47-2.69,2.35-5.4,4.51-8.13,6.48-.91.61-1.52,1.02-1.82,1.25v26.37c0,7.8-1.74,13.13-5.23,15.97-3.49,2.84-7.39,4.09-11.71,3.75s-9.21-1.27-14.66-2.78c-.38-.07-.64-.15-.79-.23-.38-.15-.68-.23-.91-.23l2.5-11.71ZM220.65,34.4c-.83-3.18-2.61-8.71-5.34-16.59l11.36-1.48c2.73,7.12,4.62,12.65,5.68,16.59l-11.71,1.48Z"/>
    <path d="M277.01,136.68c3.64-6.44,6-13.13,7.1-20.06,1.1-6.93,1.65-15.13,1.65-24.6v-18.98h-8.52v-11.82h20.12v27.5c0,11.67-.59,21.33-1.76,28.98-1.18,7.65-3.77,15.3-7.78,22.96l-10.8-3.98ZM287.47,50.2c-1.59-6.67-3.09-12.16-4.49-16.48-1.4-4.32-3.09-8.48-5.06-12.5l10.34-4.32c2.35,4.55,4.28,9.11,5.8,13.69,1.51,4.58,3.03,10.28,4.55,17.1l-11.14,2.5ZM359.75,138.72h-40c-7.05,0-13.41-1.84-19.09-5.51-5.68-3.67-11.06-8.62-16.14-14.83l8.86-7.61c4.85,5.83,9.24,10,13.18,12.5,3.94,2.5,8.33,3.75,13.18,3.75h40v11.71ZM301.45,47.81c1.59-3.94,2.84-8.11,3.75-12.5.91-4.39,1.63-10.04,2.16-16.93h11.59c-.53,7.8-1.31,14.07-2.33,18.81-1.02,4.74-2.44,9.15-4.26,13.24l-10.91-2.61ZM358.38,67.13h-54.09v-11.59h54.09v11.59ZM355.31,116.34h-47.96v-37.28h47.96v37.28ZM357.02,38.6h-47.05v-11.71h47.05v11.71ZM318.95,104.63h24.66v-13.98h-24.66v13.98ZM339.4,61.79h-11.71V16.67h11.71v45.12Z"/>
    <path d="M378.72,72.24h-7.5v-11.59h19.09v56.82c.53-.07,1.88-1.15,4.03-3.24,2.16-2.08,3.69-3.43,4.6-4.03l5.68,8.75c-3.94,4.85-7.94,8.52-11.99,11.02-4.05,2.5-7.39,3.35-10,2.56-2.61-.79-3.92-3.2-3.92-7.22v-53.07ZM381.57,50.99v-.11c-.61-2.73-1.72-6.76-3.35-12.1-1.63-5.34-3.66-10.97-6.08-16.88l10.57-4.77c2.65,5.83,4.79,11.38,6.42,16.65,1.63,5.27,2.86,9.68,3.69,13.24,0,.3.04.49.11.57l-11.36,3.41ZM395.32,60.88c3.41-3.86,5.78-9.28,7.1-16.25,1.32-6.97,1.99-15.72,1.99-26.25h40.8v35.34c0,.53.34.89,1.02,1.08.68.19,1.59.17,2.73-.06,1.14-.23,2.46-.79,3.98-1.7l1.25,11.36c-2.73,1.44-5.7,2.29-8.92,2.56-3.22.27-5.97-.4-8.24-1.99-2.27-1.59-3.41-4.32-3.41-8.18v-26.82h-17.73c-.08,6.74-.99,13.66-2.73,20.74-1.74,7.08-4.77,13.01-9.09,17.79l-8.75-7.61ZM395.88,133.16c10.76-6.89,19.7-14.49,26.82-22.79,7.12-8.3,11.97-16.8,14.55-25.51h-37.84v-11.71h50.8l.11,8.07c-2.12,11.52-6.99,22.16-14.6,31.93-7.61,9.77-18.09,18.94-31.42,27.5l-8.41-7.5ZM444.98,140.66c-11.36-7.35-20.61-15.17-27.73-23.47-7.12-8.3-12.39-17.22-15.8-26.76l11.71-1.59c3.48,8.03,8.69,15.89,15.63,23.58,6.93,7.69,15.13,14.6,24.6,20.74l-8.41,7.5Z"/>
    <path d="M473.16,72.47h-7.5v-11.59h19.09v62.39c.53-.07,1.88-1.15,4.03-3.24,2.16-2.08,3.69-3.43,4.6-4.04l5.68,8.86c-4.55,5.3-8.83,9.09-12.84,11.37-4.02,2.27-7.2,2.94-9.55,1.99-2.35-.95-3.52-3.28-3.52-6.99v-58.75ZM476,51.22c-.61-2.8-1.72-6.88-3.35-12.22-1.63-5.34-3.66-10.93-6.08-16.76l10.57-4.89c2.65,5.91,4.79,11.48,6.42,16.71,1.63,5.23,2.86,9.66,3.69,13.3,0,.3.04.49.11.57l-11.36,3.3ZM547.71,74.52h-55v-11.59h55v11.59ZM526.01,140.66h-11.59V16.78h11.59v123.87Z"/>
    <path d="M641.47,104.06h-82.39v-11.71h82.39v11.71ZM641.47,79.86h-76.14V20.31h69.66v36.25h-58.07v11.59h64.55v11.71ZM587.49,132.7c-1.52-1.44-4.19-3.73-8.01-6.88-3.83-3.14-8.01-6.19-12.56-9.15l8.18-8.64c4.92,3.26,9.49,6.52,13.69,9.77,4.2,3.26,6.99,5.57,8.35,6.93l-9.66,7.96ZM576.92,44.85h46.37v-12.96h-46.37v12.96ZM601.01,127.93c4.09.83,7.29,1.06,9.6.68,2.31-.38,3.88-1.12,4.72-2.22.83-1.1,1.25-2.52,1.25-4.26v-38.18h11.59v38.18c0,6.74-1.7,11.48-5.11,14.21-3.41,2.73-7.12,4.13-11.14,4.21-4.02.08-8.03-.3-12.05-1.14-.46,0-.87-.07-1.25-.23l2.39-11.25Z"/>
    <path d="M653.06,138.16c2.8-9.17,4.53-20.57,5.17-34.21.64-13.64.97-35.76.97-66.37v-8.18h32.73v96.48c0,6.36-1.89,10.28-5.68,11.76-3.79,1.48-8.41,1.5-13.86.06l2.5-11.25c.61.15,1.21.34,1.82.57,1.89.53,3.12.65,3.69.34.57-.3.85-1.02.85-2.16V40.99h-11.37c0,27.27-.42,47.88-1.25,61.82-.83,13.94-2.73,26.48-5.68,37.62l-9.89-2.27ZM691.24,85.54h-37.5v-11.59h37.5v11.59ZM667.38,31.1c.53-1.14,1.27-3.03,2.22-5.68.95-2.65,1.8-5.68,2.56-9.09l11.48,1.59c-.83,3.71-1.78,7.05-2.84,10-1.06,2.95-1.93,5.08-2.61,6.36l-10.8-3.18ZM673.97,119.06c-.61-11.06-1.44-19.81-2.5-26.25l5.34-1.02c1.36,10.91,2.2,19.59,2.5,26.02l-5.34,1.25ZM673.97,69.74c-.53-9.32-1.33-16.93-2.39-22.84l5.34-.8c1.36,9.55,2.16,17.09,2.39,22.62l-5.34,1.02ZM691.02,137.93c3.11-7.96,5.11-17.63,6.02-29.04.91-11.4,1.36-26.12,1.36-44.15v-5.91h30.57v65.57c0,1.44.51,2.27,1.53,2.5,1.02.23,2.48-.42,4.38-1.93l1.48,11.25c-3.11,1.67-5.99,2.71-8.64,3.12-2.65.42-4.93-.09-6.82-1.53-1.89-1.44-2.84-4.09-2.84-7.96v-59.44h-8.86c0,17.05-.53,31.18-1.59,42.39-1.06,11.21-3.26,20.5-6.59,27.84l-10-2.73ZM736.13,45.99h-41.37v-11.59h41.37v11.59ZM711.7,39.63c-.76-4.77-2.65-11.52-5.68-20.23v-.11l11.14-2.96c3.18,9.09,5.23,16.36,6.14,21.82l-11.59,1.48Z"/>
  </g>
  <g>
    <rect class="st0" x="7.72" y="6.77" width="146.32" height="146.46" rx="37.24" ry="37.24"/>
    <path class="st1" d="M65.16,50.82c1.86-1.42,16.06-13.95.33-22.07-1.97-1.02-4.38-.25-5.41,1.71-1.03,1.97-.16,4.45,1.8,5.48,5.54,2.9-3.63,12.93-18.42,22.5-2.62,1.69-3.21,4.24-1.73,6.41,1.26,1.85,4.14,1.95,6.35.95,7.22-3.27,48.15-19.32,60.67-18.53.47.03.6.66.19.87-12.6,7.19-29.5,11.98-40.7,16.2-.92.49-3.35,1.79-3.31,4.58.52,6.68,11.07,6.27,15.86,7.71-3.34,2.59-7.48,5.26-7.3,8.08-.44,2.78,3.15,4.89,6.65,5.44,15.18,3.69,18.96,9,14.1,18.06-5.29,9.85-24.05,16.2-36.9,8.28-6.64-4.1-6.35-12.79,2.6-14.51,18.5-3.55,44.4,4.81,60.88,14.35,1.86,1.21,4.17.8,5.45-.92,1.27-1.72.84-3.76-.97-5.49-6.26-5.97-26.87-11.44-31.42-13.02-9.2-2.33-24.58-5.05-36.78-2.58-15.18,3.07-18.27,19.78-4.89,28.86,13.66,9.27,41.48,4.57,50.09-12.14,4.85-9.41,2.98-22.72-16.93-27.76,9.94-7.05,8.14-13.35-5.48-15.01,16.88-5.42,42.45-12.2,42.01-23.2-.65-16.17-53.39,4.36-56.72,5.76Z"/>
  </g>
</svg>