<?xml version="1.0" encoding="UTF-8"?>
<svg id="_图层_1" xmlns="http://www.w3.org/2000/svg" version="1.1" xmlns:xlink="http://www.w3.org/1999/xlink" viewBox="0 0 369.9 160">
  <!-- Generator: Adobe Illustrator 29.0.0, SVG Export Plug-In . SVG Version: 2.1.0 Build 186)  -->
  <defs>
    <style>
      .st0 {
        fill: #ff8c19;
      }

      .st1 {
        fill: url(#_未命名的渐变);
      }
    </style>
    <linearGradient id="_未命名的渐变" data-name="未命名的渐变" x1="40.9" y1="83.9" x2="127" y2="83.9" gradientTransform="translate(0 162) scale(1 -1)" gradientUnits="userSpaceOnUse">
      <stop offset="0" stop-color="#fff"/>
      <stop offset="1" stop-color="#f0f0f0"/>
    </linearGradient>
  </defs>
  <path d="M265.4,104.1h-82.6v-11.7h82.6v11.7ZM264,51.2h-11.6v-12h-56.5v12h-11.6v-23.6h79.7v23.6h0ZM201.9,125.8c5.6,2.1,10.2,2.8,13.8,2.3,3.6-.5,5.4-2.9,5.4-7.1v-32.2c1.4-.8,3.5-2.4,6.4-4.7,2.9-2.3,5.8-4.8,8.6-7.7s4.9-5.5,6.4-7.9h-51.5v-11.8h66.5v10.9c-1.7,3.9-3.9,7.4-6.6,10.7-2.8,3.3-5.5,6.1-8.2,8.5-2.7,2.3-5.4,4.5-8.1,6.5-.9.6-1.5,1-1.8,1.2v26.4c0,7.8-1.7,13.1-5.2,16-3.5,2.8-7.4,4.1-11.7,3.8s-9.2-1.3-14.7-2.8c-.4,0-.6-.1-.8-.2-.4-.1-.7-.2-.9-.2l2.5-11.7h0ZM220.6,34.4c-.8-3.2-2.6-8.7-5.3-16.6l11.4-1.5c2.7,7.1,4.6,12.6,5.7,16.6l-11.7,1.5h0Z"/>
  <path d="M277,136.7c3.6-6.4,6-13.1,7.1-20.1s1.6-15.1,1.6-24.6v-19h-8.5v-11.8h20.1v27.5c0,11.7-.6,21.3-1.8,29-1.2,7.7-3.8,15.3-7.8,23l-10.8-4h0ZM287.5,50.2c-1.6-6.7-3.1-12.2-4.5-16.5s-3.1-8.5-5.1-12.5l10.3-4.3c2.4,4.5,4.3,9.1,5.8,13.7,1.5,4.6,3,10.3,4.5,17.1l-11.1,2.5h0ZM359.8,138.7h-40c-7,0-13.4-1.8-19.1-5.5s-11.1-8.6-16.1-14.8l8.9-7.6c4.9,5.8,9.2,10,13.2,12.5s8.3,3.8,13.2,3.8h40v11.7h0ZM301.5,47.8c1.6-3.9,2.8-8.1,3.8-12.5s1.6-10,2.2-16.9h11.6c-.5,7.8-1.3,14.1-2.3,18.8-1,4.7-2.4,9.2-4.3,13.2l-10.9-2.6h0ZM358.4,67.1h-54.1v-11.6h54.1v11.6ZM355.3,116.3h-48v-37.3h48v37.3ZM357,38.6h-47v-11.7h47v11.7ZM319,104.6h24.7v-14h-24.7v14ZM339.4,61.8h-11.7V16.7h11.7v45.1Z"/>
  <g>
    <rect class="st0" x="7.7" y="6.8" width="146.3" height="146.5" rx="37.2" ry="37.2"/>
    <path class="st1" d="M65.2,50.8c1.9-1.4,16.1-14,.3-22.1-2-1-4.4-.2-5.4,1.7-1,2-.2,4.5,1.8,5.5,5.5,2.9-3.6,12.9-18.4,22.5-2.6,1.7-3.2,4.2-1.7,6.4,1.3,1.8,4.1,1.9,6.3.9,7.2-3.3,48.2-19.3,60.7-18.5.5,0,.6.7.2.9-12.6,7.2-29.5,12-40.7,16.2-.9.5-3.3,1.8-3.3,4.6.5,6.7,11.1,6.3,15.9,7.7-3.3,2.6-7.5,5.3-7.3,8.1-.4,2.8,3.2,4.9,6.7,5.4,15.2,3.7,19,9,14.1,18.1-5.3,9.8-24.1,16.2-36.9,8.3-6.6-4.1-6.3-12.8,2.6-14.5,18.5-3.6,44.4,4.8,60.9,14.3,1.9,1.2,4.2.8,5.4-.9,1.3-1.7.8-3.8-1-5.5-6.3-6-26.9-11.4-31.4-13-9.2-2.3-24.6-5.1-36.8-2.6-15.2,3.1-18.3,19.8-4.9,28.9,13.7,9.3,41.5,4.6,50.1-12.1,4.8-9.4,3-22.7-16.9-27.8,9.9-7.1,8.1-13.3-5.5-15,16.9-5.4,42.4-12.2,42-23.2-.7-16.2-53.4,4.4-56.7,5.8h0Z"/>
  </g>
</svg>