<?xml version="1.0" encoding="UTF-8"?>
<svg id="_图层_1" data-name="图层_1" xmlns="http://www.w3.org/2000/svg" version="1.1" xmlns:xlink="http://www.w3.org/1999/xlink" viewBox="0 0 757.92 160">
  <!-- Generator: Adobe Illustrator 29.0.0, SVG Export Plug-In . SVG Version: 2.1.0 Build 186)  -->
  <defs>
    <style>
      .st0 {
        fill: #ff8c19;
      }

      .st1 {
        fill: url(#_未命名的渐变_14);
      }
    </style>
    <linearGradient id="_未命名的渐变_14" data-name="未命名的渐变 14" x1="40.93" y1="78.08" x2="126.99" y2="78.08" gradientUnits="userSpaceOnUse">
      <stop offset="0" stop-color="#fff"/>
      <stop offset="1" stop-color="#f0f0f0"/>
    </linearGradient>
  </defs>
  <g>
    <path d="M265.42,104.06h-82.62v-11.71h82.62v11.71ZM263.95,51.22h-11.59v-12.05h-56.48v12.05h-11.59v-23.64h79.67v23.64ZM201.9,125.77c5.61,2.05,10.21,2.8,13.81,2.27,3.6-.53,5.4-2.88,5.4-7.05v-32.16c1.36-.83,3.5-2.39,6.42-4.66,2.92-2.27,5.78-4.83,8.58-7.67,2.8-2.84,4.92-5.47,6.36-7.9h-51.48v-11.82h66.48v10.91c-1.67,3.86-3.88,7.44-6.65,10.74-2.77,3.3-5.49,6.12-8.18,8.47-2.69,2.35-5.4,4.51-8.13,6.48-.91.61-1.52,1.02-1.82,1.25v26.37c0,7.8-1.74,13.13-5.23,15.97-3.49,2.84-7.39,4.09-11.71,3.75s-9.21-1.27-14.66-2.78c-.38-.07-.64-.15-.79-.23-.38-.15-.68-.23-.91-.23l2.5-11.71ZM220.65,34.4c-.83-3.18-2.61-8.71-5.34-16.59l11.36-1.48c2.73,7.12,4.62,12.65,5.68,16.59l-11.71,1.48Z"/>
    <path d="M277.01,136.68c3.64-6.44,6-13.13,7.1-20.06,1.1-6.93,1.65-15.13,1.65-24.6v-18.98h-8.52v-11.82h20.12v27.5c0,11.67-.59,21.33-1.76,28.98-1.18,7.65-3.77,15.3-7.78,22.96l-10.8-3.98ZM287.47,50.2c-1.59-6.67-3.09-12.16-4.49-16.48-1.4-4.32-3.09-8.48-5.06-12.5l10.34-4.32c2.35,4.55,4.28,9.11,5.8,13.69,1.51,4.58,3.03,10.28,4.55,17.1l-11.14,2.5ZM359.75,138.72h-40c-7.05,0-13.41-1.84-19.09-5.51-5.68-3.67-11.06-8.62-16.14-14.83l8.86-7.61c4.85,5.83,9.24,10,13.18,12.5,3.94,2.5,8.33,3.75,13.18,3.75h40v11.71ZM301.45,47.81c1.59-3.94,2.84-8.11,3.75-12.5.91-4.39,1.63-10.04,2.16-16.93h11.59c-.53,7.8-1.31,14.07-2.33,18.81-1.02,4.74-2.44,9.15-4.26,13.24l-10.91-2.61ZM358.38,67.13h-54.09v-11.59h54.09v11.59ZM355.31,116.34h-47.96v-37.28h47.96v37.28ZM357.02,38.6h-47.05v-11.71h47.05v11.71ZM318.95,104.63h24.66v-13.98h-24.66v13.98ZM339.4,61.79h-11.71V16.67h11.71v45.12Z"/>
  </g>
  <g>
    <rect class="st0" x="7.72" y="6.77" width="146.32" height="146.46" rx="37.24" ry="37.24"/>
    <path class="st1" d="M65.16,50.82c1.86-1.42,16.06-13.95.33-22.07-1.97-1.02-4.38-.25-5.41,1.71-1.03,1.97-.16,4.45,1.8,5.48,5.54,2.9-3.63,12.93-18.42,22.5-2.62,1.69-3.21,4.24-1.73,6.41,1.26,1.85,4.14,1.95,6.35.95,7.22-3.27,48.15-19.32,60.67-18.53.47.03.6.66.19.87-12.6,7.19-29.5,11.98-40.7,16.2-.92.49-3.35,1.79-3.31,4.58.52,6.68,11.07,6.27,15.86,7.71-3.34,2.59-7.48,5.26-7.3,8.08-.44,2.78,3.15,4.89,6.65,5.44,15.18,3.69,18.96,9,14.1,18.06-5.29,9.85-24.05,16.2-36.9,8.28-6.64-4.1-6.35-12.79,2.6-14.51,18.5-3.55,44.4,4.81,60.88,14.35,1.86,1.21,4.17.8,5.45-.92,1.27-1.72.84-3.76-.97-5.49-6.26-5.97-26.87-11.44-31.42-13.02-9.2-2.33-24.58-5.05-36.78-2.58-15.18,3.07-18.27,19.78-4.89,28.86,13.66,9.27,41.48,4.57,50.09-12.14,4.85-9.41,2.98-22.72-16.93-27.76,9.94-7.05,8.14-13.35-5.48-15.01,16.88-5.42,42.45-12.2,42.01-23.2-.65-16.17-53.39,4.36-56.72,5.76Z"/>
  </g>
</svg>