<?xml version="1.0" encoding="UTF-8"?>
<svg id="_图层_1" xmlns="http://www.w3.org/2000/svg" version="1.1" viewBox="0 0 315.6 160">
  <!-- Generator: Adobe Illustrator 29.0.0, SVG Export Plug-In . SVG Version: 2.1.0 Build 186)  -->
  <defs>
    <style>
      .st0 {
        opacity: .9;
      }
    </style>
  </defs>
  <g class="st0">
    <path d="M199.3,114.6c-.6-.6-1.4-1.2-2.2-1.5h2.9l1.4-23.2h-25.7c-.7-3.6-1.9-7-3.8-10.1-1.7-2.8-3.7-5-6.2-6.4h34.3l1.4-23.2h-83l-1.4,23.2h34.4c-5.1,2.1-10.9,6.3-17.5,13.1,4.2.9,7.6,2,10.5,3.3h-26.1l-1.4,23.2h38.9c-.3,5-1.2,10.9-2.7,17.8h-37.3l-1.5,23.2h88.3l1.5-23.2h-6.7c4.5-6.6,5.6-12.3,1.8-16.2ZM173.7,113.1h16c-4.7,1.4-10.9,5.3-18.5,12.4,11.5-1.3,14.8-.4,13.9,5.4h-20.6c4.1-5.6,7.2-11.7,9.2-17.8Z"/>
    <path d="M82,35.8h21.4l1.4-23.2H9s-1.4,23.2-1.4,23.2h66.4c-15.3,12.7-29.1,16.2-40.2,3.6-2.7,12.7-1,20.3,3.2,24.1H9l-1.4,23.2h13.6c-24.7,27.1-15.3,51.4,0,62,16.3,11.2,50,17.1,81.4-18.9-46.5,14.8-80.6-5.8-77.1-43.1h27.5c-14,14.4-15.9,24.1-11.2,29.1,6.2,6.7,23.8,5.3,39.8-4.1v12.2c8.8-1.5,16.6-3.7,23.2-6.7v-53.7h-48.3c10.4-4.9,21.1-15.4,25.5-27.7ZM81.6,102.7c-16.5,2.9-26.4-1-25.2-16h25.2v16Z"/>
    <path d="M196.2,10.6c-6.2-2-14.8-2.7-24-1.7V2.7h-23.2v12c-5.2,2.2-10,5.1-14.2,8.6v-12.6h-23.2v32.7c8.8-1.5,16.6-3.7,23.2-6.7v-5.2c19-7.9,47.1-5.2,60.3,11.4,15.9-18.5,12.6-28.6,1.1-32.3Z"/>
    <path d="M310.2,88.9c-3.9.7-8.8,1.7-13.9,2.4v-14.1h-24.1v9.2c-2.7-3.1-4.3-7.9-4-14.9h37.8s1.4-23.2,1.4-23.2h-34c.7-2.1,1.5-4.2,2.4-6.5,9.9,1.5,19.2,1.1,25.8-.9,11.5-3.4,15.1-13.5-.4-32.3-5.2,6.2-12.4,10.3-20.5,12.6V5.8h-23.2v17.2c-7.1-.8-13.9-2.8-19.7-5.8v-6.5h-23.2v143.3c8.8-1.5,23.2,0,23.2,0V24.4c8.2,8.4,19.7,13.6,31.2,16.3-3.2,2.2-6.2,4.9-9,7.8h-17l-1.4,23.2h4.9c-3.2,10.3-3,20.7,1.8,28.4,5,8,13.9,12.5,23.7,13v6.5h-29l-1.4,23.2h30.4v11.4c9.1-1.3,17.3,2.6,24.1,0v-11.4h9.8l1.4-23.2h-11.2v-14c5.3-3.9,10.1-9.3,13.9-16.5Z"/>
  </g>
</svg>