<?xml version="1.0" encoding="UTF-8"?>
<svg id="_图层_1" xmlns="http://www.w3.org/2000/svg" version="1.1" viewBox="0 0 521.3 160">
  <!-- Generator: Adobe Illustrator 29.0.0, SVG Export Plug-In . SVG Version: 2.1.0 Build 186)  -->
  <path d="M5,146.9v-1.4L63.7,16h-26.1c-6,0-10.8,1.6-14.6,4.7-3.8,3.2-6.5,7.2-8.3,12.1-1.8,4.9-3,10.4-3.6,16.5h-1.4V14.6h84.6v1.4l-58.8,129.5h30.2c6,0,10.8-1.6,14.6-4.7,3.8-3.2,6.5-7.2,8.3-12.1,1.8-4.9,3-10.4,3.6-16.5h1.4v34.7H5Z"/>
  <path d="M105,146.9v-1.4L163.7,16h-26.1c-6,0-10.8,1.6-14.6,4.7-3.8,3.2-6.5,7.2-8.3,12.1-1.8,4.9-3,10.4-3.6,16.5h-1.4V14.6h84.6v1.4l-58.8,129.5h30.2c6,0,10.8-1.6,14.6-4.7,3.8-3.2,6.5-7.2,8.3-12.1,1.8-4.9,3-10.4,3.6-16.5h1.4v34.7h-88.5Z"/>
  <path d="M293.8,49.3h-1.4c-.6-6.1-1.8-11.6-3.6-16.5-1.8-4.9-4.6-8.9-8.3-12.1-3.8-3.2-8.6-4.7-14.6-4.7h-1.4v119.1c0,2.7.4,4.8,1.3,6.1.8,1.3,2.2,2.3,4.2,2.9,2,.6,4.9,1.1,8.9,1.4v1.4h-58.7v-1.4c3.9-.4,6.9-.8,8.9-1.4,2-.6,3.4-1.5,4.2-2.9.8-1.3,1.3-3.3,1.3-6.1V16h-1.6c-6,0-10.8,1.6-14.6,4.7-3.8,3.2-6.5,7.2-8.3,12.1-1.8,4.9-3,10.4-3.6,16.5h-1.4V14.6h88.9v34.7Z"/>
  <path d="M375.7,143.6c2-1.3,2-3.8-.2-7.6l-27.4-47.7-27.2,47.7c-2,3.5-1.7,5.9,1.1,7.3,2.7,1.4,7.7,2.1,15,2.1v1.4h-35.4v-1.4c3.8,0,7.1-.6,9.7-1.7,2.7-1.1,5-3.2,7.1-6.2l29-50.6-35.2-62.6c-2-3.2-4.1-5.4-6.2-6.6-2.1-1.2-4.6-1.8-7.4-1.8v-1.4h57v1.4c-3.3,0-6.1.7-8.1,2.2-2.1,1.5-2.2,3.9-.3,7.2l26.1,46.3,26.5-46.3c2.1-3.7,1.9-6.2-.8-7.5-2.7-1.3-7.8-2-15.3-2v-1.4h35.4v1.4c-3.8,0-7.1.6-9.7,1.7-2.7,1.1-5,3.2-7.1,6.2l-28.1,49.5,36.3,63.7c2,3.2,4.1,5.4,6.2,6.6,2.1,1.2,4.6,1.8,7.4,1.8v1.4h-57v-1.4c3.7,0,6.6-.6,8.6-1.9Z"/>
  <path d="M517.9,49.3h-1.4c-.6-6.1-1.8-11.6-3.6-16.5-1.8-4.9-4.6-8.9-8.3-12.1-3.8-3.2-8.6-4.7-14.6-4.7h-1.4v119.1c0,2.7.4,4.8,1.3,6.1.8,1.3,2.2,2.3,4.2,2.9,2,.6,4.9,1.1,8.9,1.4v1.4h-58.7v-1.4c3.9-.4,6.9-.8,8.9-1.4,2-.6,3.4-1.5,4.2-2.9.8-1.3,1.3-3.3,1.3-6.1V16h-1.6c-6,0-10.8,1.6-14.6,4.7-3.8,3.2-6.5,7.2-8.3,12.1-1.8,4.9-3,10.4-3.6,16.5h-1.4V14.6h88.9v34.7Z"/>
</svg>