<?xml version="1.0" encoding="UTF-8"?>
<svg id="_图层_1" xmlns="http://www.w3.org/2000/svg" version="1.1" viewBox="0 0 600 160">
  <!-- Generator: Adobe Illustrator 29.0.0, SVG Export Plug-In . SVG Version: 2.1.0 Build 186)  -->
  <defs>
    <style>
      .st0 {
        isolation: isolate;
      }
    </style>
  </defs>
  <g class="st0">
    <g class="st0">
      <path d="M99.2,105.7H13.1v-11.1h86v11.1ZM97.4,51.6h-11.1v-13.2H25.9v13.2h-11v-24.3h82.5v24.3ZM33.5,130.4c6,2.1,10.8,2.8,14.5,2.1,3.7-.7,5.6-3.3,5.6-7.6v-33.8c1.2-.7,3.3-2.3,6.4-4.8,3.1-2.5,6.1-5.3,9.2-8.4,3-3.1,5.4-6.2,7-9.1H22.2v-11.1h68.1v10.3c-1.8,4.2-4.2,8-7,11.5-2.9,3.5-5.8,6.5-8.6,9-2.9,2.5-5.7,4.8-8.4,6.9-.9.6-1.4,1-1.7,1.2v28.4c0,7.8-1.8,13.1-5.3,16-3.5,2.8-7.4,4.1-11.8,3.8-4.4-.3-9.3-1.2-14.7-2.8-.3,0-.6,0-.8-.1-.3-.2-.6-.2-.9-.2l2.5-11.1ZM52.7,33.9c-.8-3.2-2.6-8.9-5.4-17l10.9-1.4c2.8,7.4,4.6,13.1,5.7,17l-11.1,1.4Z"/>
      <path d="M111.3,140.7c3.9-6.7,6.4-13.5,7.6-20.5,1.2-7,1.8-15.2,1.8-24.8v-21.7h-9.3v-11.2h20.4v29.9c0,11.6-.7,21.2-2,28.9-1.3,7.7-4.1,15.5-8.3,23.3l-10.2-3.9ZM122.4,49.8c-1.7-6.9-3.3-12.6-4.8-17-1.5-4.4-3.2-8.6-5.2-12.7l9.8-4.3c2.4,4.6,4.4,9.2,6,13.9,1.6,4.7,3.2,10.6,4.9,17.7l-10.6,2.4ZM197.3,142.3h-41.7c-7.2,0-13.8-1.9-19.6-5.7-5.8-3.8-11.4-8.9-16.7-15.2l8.5-7.2c5,6.1,9.6,10.4,13.8,13.1,4.2,2.6,8.8,4,13.9,4h41.7v11.1ZM136.5,48.7c1.7-4.3,3.1-8.7,4-13.4.9-4.7,1.7-10.7,2.4-17.9h11c-.6,8.1-1.5,14.7-2.5,19.7-1,5-2.5,9.7-4.5,14.2l-10.4-2.6ZM195.8,67.9h-56.6v-11.1h56.6v11.1ZM192.5,119.4h-50v-38.3h50v38.3ZM194.4,37.9h-49.2v-11.1h49.2v11.1ZM153.5,108.3h27.9v-16.2h-27.9v16.2ZM175.4,62.8h-11.2V15.5h11.2v47.3Z"/>
      <path d="M217.4,72.6h-8.2v-11h19.1v60.3c.6,0,2.1-1.1,4.3-3.1,2.2-2,4-3.4,5.1-4.2l5.4,8.4c-3.9,4.6-7.9,8.2-12,10.6-4.1,2.4-7.4,3.2-10,2.5-2.6-.7-3.9-3.1-3.9-7v-56.4ZM220.4,50.5h0c-.6-2.9-1.8-7-3.5-12.6-1.7-5.6-3.9-11.3-6.4-17.2l10-4.6c2.8,5.8,5,11.5,6.7,17,1.7,5.5,3,10.1,4,13.8,0,.2,0,.4.1.6l-10.9,3.1ZM234.3,62c3.6-4.1,6.2-9.8,7.6-17.2,1.5-7.4,2.2-16.4,2.2-27h41.6v37.1c0,.6.4,1,1.1,1.2.7.3,1.7.3,3,0,1.3-.2,2.8-.9,4.5-1.9l1.3,10.8c-3,1.6-6.1,2.5-9.3,2.7-3.2.2-5.9-.5-8.2-2.1-2.2-1.6-3.3-4.3-3.3-8v-28.8h-19.7c0,7.2-1,14.6-2.8,21.9-1.8,7.4-5,13.6-9.6,18.6l-8.3-7.3ZM235.1,137.4c11.3-7.3,20.7-15.5,28.3-24.5,7.6-9,12.7-18.1,15.3-27.4h-39.9v-11.1h52.2v7.8c-2.2,12-7.3,23.2-15.4,33.6-8,10.4-18.9,20-32.7,28.8l-7.8-7.2ZM286.5,144.6c-11.7-7.6-21.2-15.8-28.8-24.6-7.5-8.7-13.1-18.2-16.8-28.2l11.1-1.7c3.8,8.7,9.3,17.1,16.6,25.2,7.3,8.2,15.9,15.5,25.8,22l-7.9,7.2Z"/>
      <path d="M315.7,72.8h-8.2v-11.1h19.1v66.2c.6,0,2.1-1.1,4.3-3.1s4-3.4,5.1-4.2l5.4,8.4c-4.8,5.2-9.2,8.9-13.1,11-3.9,2.2-7.1,2.8-9.3,1.8-2.3-1-3.4-3.2-3.4-6.8v-62.1ZM318.7,50.7c-.6-2.9-1.8-7.1-3.5-12.7-1.7-5.6-3.9-11.2-6.4-17l10-4.7c2.8,5.9,5,11.6,6.7,17,1.7,5.4,3,10,4,13.8,0,.3,0,.5.1.6l-10.9,3.1ZM392.9,75.2h-57.5v-11h57.5v11ZM369.6,144.6h-11.1V15.8h11.1v128.8Z"/>
      <path d="M490.3,105.7h-85.7v-11h85.7v11ZM490.2,80.9h-78.8V19.8h72v36.7h-61v13.1h67.8v11.2ZM434.5,135.8c-1.6-1.6-4.3-4-8.2-7.3-3.9-3.3-8.2-6.4-12.8-9.5l7.8-8.3c5,3.4,9.6,6.8,13.8,10.2,4.3,3.4,7.1,5.8,8.5,7.2l-9.1,7.7ZM422.4,45.4h49.9v-14.7h-49.9v14.7ZM448.2,132.3c4.5.9,8,1.2,10.5.8,2.5-.4,4.2-1.3,5-2.5.9-1.2,1.3-2.8,1.3-4.8v-40.4h11v40.4c0,6.9-1.7,11.7-5.2,14.5-3.5,2.8-7.2,4.2-11.3,4.3-4.1,0-8.1-.4-12.2-1.2-.5,0-.9,0-1.4-.2l2.4-10.8Z"/>
      <path d="M502.3,142c3.1-9.7,5-21.9,5.7-36.6.7-14.7,1.1-37.4,1.1-68v-8h33.2v99.8c0,6.2-1.9,10.1-5.6,11.8-3.7,1.6-8.5,1.7-14.2.2l2.5-10.8c.6.2,1.3.5,2,.7,2.1.6,3.5.6,4.2.1.7-.5,1-1.3,1-2.6V40.5h-12.8c0,27.7-.5,49.1-1.4,64-.9,14.9-3,28.2-6.2,39.8l-9.5-2.2ZM541.3,86.8h-38.3v-11.1h38.3v11.1ZM517.4,31.1c.6-1.2,1.3-3.2,2.4-6,1-2.8,1.9-6.1,2.7-9.8l10.9,1.5c-.8,3.9-1.8,7.5-2.9,10.6-1.1,3.2-2,5.4-2.7,6.7l-10.4-3.1ZM524.2,71.1c-.6-9.2-1.6-17.1-2.8-23.7l5.4-.8c1.5,9.9,2.4,17.8,2.7,23.6l-5.3.9ZM524.1,121.8c-.6-10.8-1.5-19.7-2.7-26.8l5.3-1.1c1.5,11.2,2.4,20.1,2.8,26.7l-5.4,1.2ZM541.4,141.8c3.5-8.3,5.7-18.3,6.7-30.1,1-11.8,1.5-27,1.5-45.8v-5.6h31.2v68.2c0,1.5.5,2.4,1.7,2.7,1.1.3,2.7-.4,4.8-2.1l1.7,10.6c-3.3,1.8-6.3,2.9-9,3.2-2.7.4-5-.2-6.8-1.7-1.8-1.5-2.7-4.1-2.7-7.8v-62.1h-10.5c0,17.8-.7,32.5-1.8,44.1-1.1,11.6-3.5,21.3-7.1,29l-9.6-2.7ZM588.6,45.7h-43.1v-11.1h43.1v11.1ZM563.6,39.6c-.8-5-2.8-12.2-5.9-21.4h0c0-.1,10.6-3,10.6-3,3.2,9.5,5.3,17.2,6.3,22.9l-11,1.4Z"/>
    </g>
  </g>
</svg>