<?xml version="1.0" encoding="UTF-8"?>
<svg id="_图层_1" xmlns="http://www.w3.org/2000/svg" version="1.1" viewBox="0 0 600 160">
  <!-- Generator: Adobe Illustrator 29.0.0, SVG Export Plug-In . SVG Version: 2.1.0 Build 186)  -->
  <defs>
    <style>
      .st0 {
        isolation: isolate;
      }
    </style>
  </defs>
  <g class="st0">
    <g class="st0">
      <path d="M99.2,104.9H13.1v-10.2h86v10.2ZM97.1,51.6h-10v-13.9H25.2v13.9h-10v-24h82v24ZM33.8,131.6c6.2,2.1,11.1,2.7,14.8,1.8,3.6-.9,5.4-3.6,5.4-8v-34c1-.6,3.1-2.2,6.2-4.8,3.1-2.6,6.2-5.5,9.4-8.8,3.1-3.3,5.6-6.6,7.4-9.8H22.7v-10.3h67.1v9.6c-1.8,4.2-4.2,8.1-7.1,11.7-2.9,3.6-5.8,6.7-8.7,9.3-2.9,2.6-5.7,4.9-8.3,6.9-.9.6-1.4,1-1.7,1.2v29.1c0,7.5-1.7,12.6-5.1,15.4-3.4,2.8-7.2,4.1-11.5,3.8-4.3-.3-9-1.1-14.3-2.5-.3,0-.6-.2-.7-.2-.4,0-.7-.2-.9-.2l2.2-10ZM53,33.6c-.8-3.1-2.6-8.7-5.3-16.8l9.9-1.4c2.8,7.5,4.6,13.1,5.6,16.9l-10.2,1.3Z"/>
      <path d="M111.3,140.8c3.9-6.6,6.5-13.3,7.8-20.1,1.3-6.8,1.9-14.7,1.9-23.9v-23.6h-9.7v-10.3h19.8v31.1c0,11-.7,20.3-2,27.8-1.3,7.5-4.2,15.1-8.5,22.8l-9.3-3.8ZM122.7,49.2c-1.7-6.9-3.3-12.6-4.8-16.9-1.5-4.3-3.3-8.4-5.3-12.3l9.1-4c2.3,4.4,4.2,8.9,5.8,13.5,1.6,4.6,3.3,10.5,5,17.5l-9.8,2.1ZM197.3,142.2h-41.7c-7.2,0-13.6-1.9-19.4-5.6-5.8-3.7-11.3-8.8-16.5-15.2l7.8-6.6c5,6.1,9.7,10.6,13.9,13.2,4.3,2.7,9,4,14.2,4h41.7v10.2ZM136.5,49.4c1.7-4.5,3.1-9.1,4-13.9.9-4.8,1.7-10.8,2.4-18.1h10.2c-.6,8.1-1.5,14.7-2.5,19.8-1.1,5.1-2.6,9.9-4.5,14.6l-9.5-2.4ZM195.8,67.6h-56.9v-10.2h56.9v10.2ZM192.5,119.5h-50.2v-37.9h50.2v37.9ZM194.4,37.4h-49.4v-10.2h49.4v10.2ZM152.3,109.4h30v-17.6h-30v17.6ZM174.6,62.9h-10.2V15.5h10.2v47.4Z"/>
      <path d="M217.8,71.9h-8.5v-10.2h18.7v61.4c.6,0,2-.9,4.3-2.8,2.2-1.8,4-3.3,5.4-4.3l5.1,7.7c-3.9,4.3-7.7,7.6-11.6,9.9s-7.1,3-9.6,2.3c-2.5-.7-3.7-2.9-3.7-6.6v-57.4ZM220.7,49.9h0c-.6-3-1.8-7.1-3.6-12.6-1.8-5.5-3.9-11.1-6.4-16.8l9.2-4.4c2.7,5.7,4.9,11.2,6.6,16.7,1.7,5.4,3.1,10,4,13.7,0,.2,0,.4.1.6l-9.9,2.8ZM234.3,62.3c3.7-4.2,6.3-10,7.8-17.5,1.5-7.5,2.2-16.4,2.2-26.8h40.9v37.5c0,.6.4,1,1.1,1.3.7.3,1.7.4,3,.2,1.3-.2,2.9-.8,4.9-1.9l1.3,9.8c-3.1,1.7-6.2,2.6-9.4,2.7-3.2.2-5.8-.5-7.9-2.1-2-1.6-3.1-4.1-3.1-7.6v-29.8h-20.9c0,7.4-1,14.8-2.8,22.3-1.8,7.4-5,13.7-9.6,18.7l-7.6-6.7ZM235.3,137.8c11.4-7.4,21-15.7,28.7-25,7.7-9.3,12.9-18.7,15.5-28.3h-40.4v-10.2h51.6v7.2c-2.2,12-7.4,23.3-15.5,33.8-8.2,10.6-19.1,20.3-32.8,29.1l-7.1-6.7ZM287.1,144.6c-11.6-7.6-21.2-15.9-28.8-24.8-7.6-8.9-13.4-18.4-17.1-28.7l10.2-1.7c3.9,9,9.5,17.6,16.8,25.9,7.4,8.3,16.1,15.8,26.2,22.4l-7.2,6.7Z"/>
      <path d="M316.1,72h-8.5v-10.2h18.7v67.2c.6,0,2-.9,4.3-2.8,2.2-1.9,4-3.3,5.4-4.3l5.1,7.7c-4.8,5-9.1,8.5-12.9,10.5-3.8,1.9-6.7,2.4-8.9,1.5-2.1-.9-3.2-3.1-3.2-6.4v-63.2ZM319,50c-.6-2.9-1.8-7.1-3.6-12.6-1.8-5.5-3.9-11.1-6.4-16.7l9.2-4.4c2.7,5.7,4.9,11.2,6.6,16.6,1.7,5.4,3.1,10,4,13.8,0,.2,0,.4.1.5l-9.9,2.8ZM392.9,74.7h-57.9v-10h57.9v10ZM368.9,144.6h-10V15.8h10v128.8Z"/>
      <path d="M490.3,105.1h-85.7v-10.2h85.7v10.2ZM490.2,80.4h-78.7V20h71.6v36h-61.6v14.1h68.6v10.3ZM434.6,135.3c-1.5-1.6-4.2-4-8-7.3-3.8-3.3-8-6.5-12.6-9.6l7.1-7.7c4.9,3.5,9.4,6.9,13.5,10.3,4.1,3.4,6.9,5.8,8.3,7.3l-8.4,7ZM421.6,45.8h51.3v-15.6h-51.3v15.6ZM448,133.2c4.7.9,8.4,1.2,10.9.7,2.6-.5,4.3-1.4,5.1-2.7.9-1.3,1.3-3,1.3-5.1v-40.9h10v40.9c0,6.8-1.7,11.5-5.1,14.2-3.4,2.7-7.1,4.1-11,4.1-4,0-8-.4-12.1-1.2-.5,0-.9,0-1.3-.2l2.1-9.8Z"/>
      <path d="M502.3,142.1c3.1-9.9,5.1-22.4,5.9-37.6.8-15.1,1.2-37.5,1.2-67.1v-7.6h32.4v99.4c0,5.9-1.8,9.7-5.4,11.4-3.6,1.7-8.3,1.8-14,.2l2.2-9.8c.8.2,1.5.5,2.2.7,2.3.5,3.8.4,4.5-.1.7-.6,1.1-1.5,1.1-3V40h-13.6c0,27.1-.5,48.3-1.4,63.7-.9,15.4-3.1,28.9-6.5,40.5l-8.6-2.1ZM540.7,86.3h-37.7v-10.2h37.7v10.2ZM517.8,31.6c.5-1.3,1.3-3.3,2.4-6.3,1-2.9,1.9-6.3,2.6-10l10,1.4c-.8,4-1.8,7.6-2.9,10.9-1.1,3.2-2,5.5-2.7,6.9l-9.5-2.8ZM524.4,71.3c-.6-8.8-1.6-16.8-3-23.9l5.2-.8c1.7,10,2.6,17.9,3,23.7l-5.2.9ZM524.2,121.5c-.6-10.2-1.5-19-2.8-26.5l5.2-1.1c1.6,11.1,2.6,19.9,3,26.5l-5.3,1.1ZM541.1,141.8c3.5-8.1,5.8-18.1,6.9-29.8,1-11.8,1.5-27,1.5-45.5v-5.1h30.7v68.2c0,1.5.6,2.4,1.7,2.7,1.1.3,2.9-.4,5.3-2.1l1.7,9.7c-3.3,1.8-6.3,2.9-9,3.2-2.7.3-4.9-.3-6.6-1.8-1.7-1.5-2.6-4-2.6-7.4v-62.4h-11.7c0,17.8-.6,32.5-1.8,44.1-1.2,11.6-3.6,21.3-7.3,29l-8.7-2.7ZM588.6,45.2h-43.4v-10.2h43.4v10.2ZM563.8,39.8c-.7-5.1-2.7-12.3-5.9-21.6h0c0-.1,9.8-2.8,9.8-2.8,3.2,9.6,5.3,17.3,6.3,23.2l-10.2,1.3Z"/>
    </g>
  </g>
</svg>