<?xml version="1.0" encoding="UTF-8"?>
<svg id="_图层_1" xmlns="http://www.w3.org/2000/svg" version="1.1" viewBox="0 0 11511.34 1500">
  <!-- Generator: Adobe Illustrator 29.0.0, SVG Export Plug-In . SVG Version: 2.1.0 Build 186)  -->
  <path d="M1285.18,1103.76c-811.48-529.68-24.89-667.16-557.1-836.98,96.52,167.41-85.44,863.79-332.56,777.05,391.67,274.07,298.1-451.57,645.97,43.15,38.13,35.73-21.2,10.77-37.45,10.01-36.29,3.72,55.03,58.61,61.67,70.48,75.46,46.76,125.77,179.02,188.96,50.61,14.7-24.83,106.43-133.45,30.51-114.32Z"/>
  <path d="M958.29,808.95c1.7-2.74-.55-6.04-2.52-2.55.85.72,1.69,2.3,2.52,2.55Z"/>
  <path d="M2229.14,700.98c-12.32-10.52-38.51-29.99-36.94.34-189.11,137.99-488.84,122.82-121.73-109.41,73.74-42.16-87.4-108.16,16.83-117.86,172.69-40.47,365.36-128.49,98.7-266.87-24.93-13.47-21.64,5.69-35.67,20.75-353.48,153.07-131.4,61.51-288.8-57.83-16.69-6.01-121.19-68.47-110.74-34.35,71.71,77.88-85.28,161.5-25.77,172.72,113.45.41,81.91,60.52-7.93,76.56-70.56,7.9-161.2,92.79-216.44,29.91-89.45-79.05-44.93,86.53-118.97,154.03-44.02,39.32-4.91,130.57,42.72,144.77,63.98-5.5,74.52-98.83,110.84-140.2,56-64.51,798.96-333.43,474.16-125.31-138.36,17.7-258.09,123.45-393.4,163.97-29.72,5.45-60.09-25.84-54.86,8.34,40.68,163.57,168.73,48.7,290.72-6.1,75.44-32.75-51.66,95.92-66.26,109.04-39.04,35.8-83.98,16.8-53.96,52.19,132.92,90.83-413.71,209.59-408.36,158.11-19.18,381.62,532.53-233.97,411.34,187.17-12.11,48.28-28.52,42.44-67.53,24.75-33.24-6.6-137.36-77.97-86.87,2.69,394.55,697.56,151.37-359.17,526.77-271.69-137.02,114.08,107.07,9.57,152.62,13.55,182.56-26.77,32.58-121.28-30.47-189.26Z"/>
  <path d="M8451.64,871.93c-11.1,63.28-60.95,251.82,48.42,235.44,37.3-72.04,63.93-232.26-48.42-235.44Z"/>
  <g>
    <path d="M9034.49,505.26c-434.99,420.15-326.49,12.32-27.1-179.22,1.39-27.56-123.48-86.64-169.03-74.57,15.08,31.66,2.78,59.29-24.97,80.07-46.64,30.31-162.04,206.22-210.15,137.5,73.4,185.26-35.6,431.31-39.13,634.92-2.34,28.4,19.48,45.23,43.51,54.38,101.99,39.46,79.48-195.18,99.69-251.49,221.2-357.37,139.21,251.09,103.59,441.94,350.44,239.8-35.75-707.34,337.53-708.88,152.13-36.04-137.74-191.4-113.93-134.66Z"/>
    <path d="M8488.72,724.26c-232.62,4.92,174.64-76.57,102.26-144.41-68.4-124.62-360.76,200.28-270.88-20.22,22.47-70.28,51.25-78.6-23.93-40.66-76.73-25.87,100.07-79.53,134.89-105.86,149.2-54.6-92.42,165.92-79.37,193.07,107.43-37.13,332.84-160.18,158.82-223.69,41.18-42.84,196.35-65.51,63.93-129.24-87.82-26.9-20.05-89.16-187.48-113.94-57.62-11.63-7.83,14.13-3.62,38.02,16.4,34.32-63.22,100.81-13.85,104.65,126.67,29.82-214.46,167.54-247.26,124.32,24.32,89.63,128.62,100.04,73.15,208.76-1.29,26.23,52.13,57.01,11.84,77.26-77.12,32.89-152.06,103.27-236.76,89.26-38.03,12.28,42.85,147.26,89.85,92.48,323.09-203.41,355.96-67.45,25.76,52.78-66.95,20.68,83.93,91.13-24.27,182.73-25.5,18.41-10.58,41.69,4.45,61.14,66.85,143.91,153.2-128.29,174.16-180.92-25.22,6.63-72.92,86.97-88.72,29.67,2.51-26.75,167.7-137.05,144.54-59.22-22.72,70.31-17.88,198.1-103.56,216.72,237.51,186.71,152.13-321.03,329.04-376.87,67.18-28.67,9.16-65.66-33-75.8Z"/>
  </g>
  <path d="M521.91,606.48c-15.83,48.53-185.35-49.59-116.61,22.34,48.53,136.97,111.62,140.98-48.84,227.08-256.25,226.15,185.74-433.14-219.27-394.2,27.12,30.87,66.07,39.27,45.67,89.93-24.32,158.36-38.38,319.76-74.39,476.31.43,61-78.98-5.98-54.87,35.94,195.55,371.79,374.61-273.4,490.11-271.86,66.75-2.7,95.33-361.69-21.81-185.53Z"/>
  <path d="M3604.98,1057.82c-893.97-702.45,97.9-480.11-333.37-706.09-187.51,236.56,85.17-231.19-215.98-181.85,28.7,306.84-24.9,394.72-283.08,475.37,70.21,207.22,77.58,88.44,180.27,76.45-41.01,48.7-158.21,317.75-174.3,188.2-10.13-23.53-53.99,117.68-65.74,136.98-41.03,46.83,25.47,110.38,75.21,98.7,19.99-6.08,36.15-72.91,54.86-31.83,46.86,133.53,116.33,36.04,134.66,58.08-.86,95.42-42.85,197.99,94.2,205.39,96.95-46.44-48.32-306.77,125.82-311.51,49.66-15.95,137.73-92.38,167.66-16.31.26,15.17-48.7-17.28-47.7-5.45,134.4,126.45,203.4,242.68,296.34,40.93,7.97-15.69,9.17-24.54-8.87-27.05ZM2858.35,1074.3c9.28-84.58,95.51-170.21,146.79-237.78,27.41,114.33-10.51,261.94-146.79,237.78ZM3160.9,960.6c-58.53,36.8-38.06-40.34-38.31-73.76-12.46-179.95,45.17-160.51,141.85,8.11-11.21,37.5-67.7,47.53-103.54,65.65Z"/>
  <path d="M2726.03,558.77c119.58-134.92,216.6-296.55,1.45-319.31,24.68,32.2,49.02,30.47,25.71,74.73-35.74,40.84-257.6,469.09-237.31,311.27-168.63,141.83-95.43,436.87,83.36,121.01,16.42,137.4-39.83,318.67-41.68,437.85,99.24,74.09,148.29,43.78,130.22-65.34-4.18-181.97,65.17-385.4,38.24-560.22Z"/>
  <path d="M4778.06,1161.84c-937.79-433.8-8.12-210.68-214.95-434.23-116.31-117.19-109.98,20.24-221.98,8.59-119.83-27.89,5.34-18.16,39.39-63.89,66.63-36.74,224.87-117.31,64.29-149.38-16.65-2.9-64.57,41.74-66.19,14.26,147.93-146.47,469.99-170.5,129.28-368.07-74.69,85.78-207.59,128.12-310.33,171.74-184.52-96.18-78.35,5.95-163.62,100.46-115.78-83.81,102.59-238.7-172.09-245.7,53.42,291.6-96.62,305.46-271.96,414.59,70.97,223.09,155.46-5.27,229.01,35.02,11.75,151.35-207.51,171.37-242.07,292.91,3.53,60.72,66.88,86.13,89.64,136.65,33.5,57.68,66.25,311.31,166.78,218.53,83.54-14.99,22.36-430.17,87.83-300.7,28.1,149.95,232.89-67.79,210.62-1.76-36.83,70.78-168.72,139.47-174.7,213.68,61.47,112.4,130.96-46.16,180.75-93.29,57.71-16.29-34.65,170.49,66.42,185.95,137.8,53.27,23.13-241.45,127.02-231.65-1.66-1.95,218.3,126.15,193.85,135.65-43.91,5.46-51.54,13.18-14.43,44.08,190.26,111.58,251.58,210.79,282.31-74.09,1.07-18.16-5.16-11.03-14.87-9.36ZM3728.5,1039.75c-39.83-27.34-31.6-49.96,2.07-78.79,86.61-107.83,51.55-3.1,45.16,65.05,1.26,43.91-20.37,45.14-47.23,13.74ZM4152.58,749.53c-103.7,67.82,151.98-208.74,28.56-213.54-77.73,1.72-79.34,149.54-142.22,190.29-64.01,65.36,54.97,130.19,132.54,44.25,22.65-13.3,27.77,4.52,22.85,24.81-123.42,150.22-408.52,216.32-240.22-98.17,17.85-48.1-1.23-32.31-3.91-58.67-13.67-84.03,105.54-241.06,47.72-59.24,116.92,177.88,47.41-132.53,479.26-257.22-8.79,51.12-74.7,171.25-152.51,113.57-132.11,161.37,17.95,184.66-172.06,313.91Z"/>
  <path d="M5356.63,845.04c110.64-97.5,79.94-3.63,169.82,40.32,170.33,42.88,71.06-286.08-88.97-207.24-8.69,77.37-122.87,76.62-177.36,118.54-144.54,44.53,321.68-247.32,110.21-254.59-439.93,314.75,53.94-151.85,258.65-134.47,81.69-2.83-194.92,152.51-140.43,158.4,212.48-46.72,525.69-96.4,194.29-287.14-40.69,14.98-437.8,234.38-336.57,87.7,95.52-55.61,316.16-183.32,100.48-188.56-78.46,49.96-27.55-44.14-186.56-72.96-70.46-34.02,55.51,278.02-266.99,243.28-54.51-13.41,18.63,113.31,81.39,111.95,25.91.83,64.82-23.37,88.36-12.57,36.45,77.28-118.91,90.15-163.94,130.81-76.37,70.47-159.58-77.32-167.09,63.66-4.31,74.47-68.14,136.66-65.93,209.32,129.12,219.86,119.38-199.95,316.53-226.25,37.66-14.91,44.46-6.87,16.96,22.85-22.93,33.72-68.11,50.3-85,86.64-6.23,45.4,41.02,82.9,83.02,58.79,8.66-1.23,32.17-18.54,34.25-8.64-64.04,111.47-169.24,92.88-148.77,138.26,26.98,119.41,97.58,100.15,177.36,49.4,60.29-11.81-6.22,308.92-81.39,296.7,181.61,184.02,294.74-250.27,236.31-378.49-3.72-23.24,26.32-32.83,41.37-45.71Z"/>
  <path d="M5458.63,973.72c-230.8,150.33,235.24,244.04,105.22,248.24-157.51-31.99,182.02,108.01,194.65,149.63,48.5,98.15,126.55-131.16,120.04-177.91-143.82-26.06-290.07-162.3-419.92-219.96Z"/>
  <path d="M5022.02,1115.83c-58.4,60.4-5.07-88.63-87.17-73.25-29.28,40.82-28.9,140.32-94.05,154.36-9.4,3.36-5.02,12.49-1.1,18.79,118.89,278.29,345.87-292.19,182.32-99.89Z"/>
  <path d="M6392.47,289.19c165.55-68.59,396.31-117.89,83.01-213.18,44.04,80.9-186.26,233.47-83.01,213.18Z"/>
  <path d="M6955.52,1241.21c-157.22-33.03-266.54-117.91-348.75-162.29-352.26-157.8-44.03-120.3,115.29-206.12,5.33-44.19-125.26-153.63-153.09-97.07-77.9,34.19-161.84,84.67-242.72,38.02-42.55-61.82,363.79-128.66,287.67-185.57-59.64-68.1-152.2,16.94-218.35,31.36-57.13-80.93,123.69-102.09,161.98-139.16,21.99-38.72-55.44-78.11-88.37-71.41-117.68-69.71,298.66-88.21,248.47-135.5-25.43-49.37-113.49-90.39-164.82-48.5-306.07,122.54-274.02,185.89-219.96-127.36-78.89,63.5-80.38,81.45-189.76,57.48-31.79-4.99,31.94,39.36,13.01,112.91-5.7,43.26,78.04,91.27,15.7,118.48-60.85,22.35-132.48,73.76-196.85,43.3-42.98,281.69,361.02-114.43,295.28,61.59-42.28,77.61-257.61,60.28-158.96,154.39,16.98,11.82,40.56,3.93,58.54,8.38,12.52,27.29,26.67,6.95,48.76,13.11,30.08,41.31-164.61,105.48-194.86,89.04-49.02,4.99,32.28,150.52,144.34,64.24,279.62-74.07-235.86,201.88-304.64,166.26-41.55-4.09,19.78,119.23,46.8,122.45,310.14,291.92,301.76.87,456.95-48.96,35.69,29.73,431.06,182.01,235.79,175.35-15.38,5.14,23.77,21.12,29.02,23.41,154.73,52.45,352.96,228.42,323.53-57.85ZM5967.58,1125.16c74.44-43.86,146.82-76.17,225.79-97.15,18.08,116.83-225.34,253.38-225.79,97.15ZM6396.93,964.33c-49.11-13.82,38.2-41.14,53.88-41.5,1.48,20.89-35.76,42.53-53.88,41.5Z"/>
  <path d="M7839.6,274.52c-153.23,17.73-671.78,350.25-517.91-41.18,22.95-81.33-32.45-5.05-69.43-13.95-187.57-48.89-44.24-5.7-65.81,94.76-28.14,95.65,77.31,154.21,14.15,174.27-172.69,77.78-99.81,10.23-218.99-52.85-13.37.15-10.8,23.73-12.31,34.27.21,69.73-74.68,152.85-84.5,233.84,58.21,203.39,100.63,61.98,157.17-48.33,103.58-69.31,884.16-374.52,623.51-148.29,3.11,5.04-13.65,20.1-11.78,8.03-47.81,41.93-94.54-27.31-138.27-7.09-117.46,65.11-245.78,123.4-369.65,154.32,4.76,175.78,220.7-7.79,320.24-22.52,13.72,31.56-88.29,91.04-113.81,112.77-86.2,27.89-42.58,42.63-6.26,92.11-8.85,62.5-359.06,158.66-423.83,117.18-28.57,315.52,406.12-103.33,412.89,89.91-13.96,28.29-10.38,148.9-62.31,111.85-372.71-295.95,157.14,601.46,194.83-37.02,6.4-116.72,31.05-229.37,165.58-218.39,20,3.73-64.4,44.73-46.73,52.3,157.42-29.26,478.65-34.28,193.95-228.59-167.42,106.42-521.89,154.95-119.51-86.24,37.86-195.32,524.42-122.02,178.77-371.16Z"/>
  <path d="M7395.54,376.8c119.53-2.11,620.12-232.09,230.2-298.12,41.32,53.1-17.91,77.5-48.48,119.96-28.55,22.34-96.1,141.18-119.45,126.42,59.2-274.03,26.59-116.96-46.63-144.14-18.28-9.65-50.97-16.9-40.78,15.02,3.23,68.33-40.06,125.36,25.15,180.86Z"/>
  <path d="M10090.7,275.08c39.04,3.5,33.85-32.25,34.89-59.88,6.4-88.1-104.26-103.78-176.42-106.9-3.71,4.97,6.61,12.3,11.15,16.2,42.3,20.92-13.56,68.24-13.36,87.7,82.04-11.85,61.61,41.48,143.74,62.88Z"/>
  <path d="M10311.69,1270.16c-38.51-239.54-3.31-480.71-100.96-694.43-42.41-49.49-47.11,300-58.68,377.69,12.14,233.88-147.73-182.67-176.43-234.94-32.41-111.7,187.99-240.93-15.18-291.64-34.65-29.86-29.49,163.11-88.01,85.52-74.86-122.09,34.72-132.14,122.63-168.86,41.8-30.89-94.02-123.1-124.7-112.37-119.91,125.4-99.36-77.7-180.71-114.55-398.63-9.17,314.38,164.21-329.86,338.47-49.85,16.58-104.79,65.93-145.95,12.19-30.77-25.96,1.29,36.78,8.31,50.05,56.52,147.49,96.77,54.98,119.88,110.04-55.04,370.59-103.16,108.97-134.73,313.97-14.72,48.69,6.69,104.81,60.89,112.69,83.53,38.78,115.91-273.7,145.36-233.11-33.83,273.34,272.97,57.19,334.83-34.33-8.26-12.51-56.12,15.6-21.07-26.84,41.06-47.67,35.69-76.25-22.49-102.8-75.71-29.71-125.46,65.67-198.75,75.04-118.74-45.59,373.51-167.14,185.45-219.57-81.18-34.64-100,53.89-165.85,78.85-69.02,27.82-55.58-68.8,13.28-78.25,297.23-159.15,331.31,211.85,181.4,363.49,77.49,5.51,172.79-184.73,199.09-4-7.87,14.19-55.59-16-82.66-4.49-50.55,29.9-156.43,86.33-31.06,98.67,12.52,77.08-127.73,20.88-69.24,91.2,118.35,112.17-149.9,106.95-209.14,100.37-37.36-12.4-4.76-64.54-49.74-99.65-57.08-50.93-45.29,18.06-83.31,19.92-81.2-79.26-94.33,40.41-148.65,87.36-77.85,53.3,35.62,276.61,165.92-48.82,60.7,217.54,387.2,165.66,564.57,92.37,137.87-99.04-339.19-157.26-93.14-228.53,226.39-92.84,156.98,469.2,413.14,387.06,29.9-19.55,18.56-66.34,15.53-97.77ZM9498.36,833.61c-.63-56.49,151.25-125.04,81.13-17.53-1.94,50.7-106.93,98.46-81.13,17.53ZM9454.47,675.56c7.21-14.18,10.93-40.41,24.07-46.52,84.9,25.89-74.87,157.59-24.07,46.52Z"/>
  <path d="M9695.38,935.47c-17.73,5.2-36.77,26.43-53.29,36.34-20.6,32.12-104.88-28.96-109.99.19,75.13,228.87,126.63,158.83,163.28-36.53Z"/>
  <path d="M10717.91,923.66c-86.25-74.33,216.82-127.12,180.64-172.69-23.62-31.2-82.49-64.6-122.75-47.46-5.48.94-5.05-3.09-5.33-10.01.42-42.78-31.96-47.47-17.08-61.52,70.95-63.29,264.25-162.42,71.93-244.49-29.57,59.02-182.28,143.76-233.12,140.43,79.35-155.41,249.66-257.88-25.08-360.48,95.7,130.28-124.42,366.3-208.33,455-29.98,9.87-15.44,38.57-1.51,56.72,75.41,171.09,280.92-76.4,213.63,27.71-92.06,127.24,86.48-42.51,7.51,100-76.1,49.02-166.21,90.58-249.96,122.57-29.73,3.44-61.49-32.13-31.85,29.39,38.44,207.14,293.77-130.4,219.18,75.27,1.33,54.55-217.8,294.62-155.78,277.24,152.95-67.39,211.95-138.52,287.05-281.23,110.35,212.18,266.21-48.4,70.85-106.46Z"/>
  <path d="M11330.91,817.29c163.32-138.06,144.57-215.04-55.42-314.95,47.43,87.99-305.21,230.87-374.96,132.49-8.3-2.86-18.15-5.24-16.35,2.05,46.69,82.89,9.85,320.64-33.82,342.2,26.4,270.16,511.02-23.93,634.8-110.25,4.25-31.33-246.31,69.95-154.25-51.54ZM11246.25,714.4c-214.43,417.9-412.21,137.64.81-15.43,9.45-3.82,2.93,8.79-.81,15.43Z"/>
</svg>