<?xml version="1.0" encoding="UTF-8"?>
<svg id="_图层_1" xmlns="http://www.w3.org/2000/svg" version="1.1" xmlns:xlink="http://www.w3.org/1999/xlink" viewBox="0 0 641.8 160">
  <!-- Generator: Adobe Illustrator 29.0.0, SVG Export Plug-In . SVG Version: 2.1.0 Build 186)  -->
  <defs>
    <style>
      .st0 {
        fill: #ff8c19;
      }

      .st1 {
        fill: url(#_未命名的渐变);
      }
    </style>
    <linearGradient id="_未命名的渐变" data-name="未命名的渐变" x1="40.9" y1="83.9" x2="127" y2="83.9" gradientTransform="translate(0 162) scale(1 -1)" gradientUnits="userSpaceOnUse">
      <stop offset="0" stop-color="#fff"/>
      <stop offset="1" stop-color="#f0f0f0"/>
    </linearGradient>
  </defs>
  <g>
    <rect class="st0" x="7.7" y="6.8" width="146.3" height="146.5" rx="37.2" ry="37.2"/>
    <path class="st1" d="M65.2,50.8c1.9-1.4,16.1-14,.3-22.1-2-1-4.4-.2-5.4,1.7-1,2-.2,4.5,1.8,5.5,5.5,2.9-3.6,12.9-18.4,22.5-2.6,1.7-3.2,4.2-1.7,6.4,1.3,1.8,4.1,1.9,6.3.9,7.2-3.3,48.2-19.3,60.7-18.5.5,0,.6.7.2.9-12.6,7.2-29.5,12-40.7,16.2-.9.5-3.3,1.8-3.3,4.6.5,6.7,11.1,6.3,15.9,7.7-3.3,2.6-7.5,5.3-7.3,8.1-.4,2.8,3.2,4.9,6.7,5.4,15.2,3.7,19,9,14.1,18.1-5.3,9.8-24.1,16.2-36.9,8.3-6.6-4.1-6.3-12.8,2.6-14.5,18.5-3.6,44.4,4.8,60.9,14.3,1.9,1.2,4.2.8,5.4-.9,1.3-1.7.8-3.8-1-5.5-6.3-6-26.9-11.4-31.4-13-9.2-2.3-24.6-5.1-36.8-2.6-15.2,3.1-18.3,19.8-4.9,28.9,13.7,9.3,41.5,4.6,50.1-12.1,4.8-9.4,3-22.7-16.9-27.8,9.9-7.1,8.1-13.3-5.5-15,16.9-5.4,42.4-12.2,42-23.2-.7-16.2-53.4,4.4-56.7,5.8h0Z"/>
  </g>
  <path d="M265.1,103.7h-81.2v-11.5h81.2v11.5ZM263.6,51.8h-11.3v-12h-55.7v12h-11.4v-23.2h78.3v23.2ZM202.6,125.1c5.5,2.1,10,2.9,13.6,2.3,3.5-.5,5.3-2.8,5.3-6.9v-31.7c1.3-.8,3.4-2.3,6.3-4.6,2.9-2.2,5.7-4.8,8.4-7.5,2.8-2.8,4.9-5.4,6.4-7.9h-50.7v-11.5h65.4v10.6c-1.6,3.9-3.8,7.4-6.5,10.7-2.7,3.2-5.4,6-8.1,8.3-2.7,2.3-5.4,4.4-8,6.4-.9.6-1.5,1-1.7,1.2v26c0,7.6-1.7,12.8-5.1,15.6-3.4,2.8-7.3,4-11.5,3.7-4.2-.3-9.1-1.2-14.4-2.7-.3,0-.6-.1-.8-.2-.3-.1-.6-.2-.9-.2l2.5-11.5ZM221,35.2c-.8-3.1-2.6-8.6-5.3-16.3l11.2-1.5c2.7,7,4.5,12.4,5.6,16.3l-11.5,1.5Z"/>
  <path d="M276.5,135.8c3.6-6.3,5.9-12.9,7-19.7,1.1-6.8,1.6-14.9,1.6-24.2v-18.8h-8.4v-11.5h19.8v27.2c0,11.5-.6,21-1.7,28.4-1.2,7.5-3.7,15-7.7,22.5l-10.6-3.9ZM286.7,50.8c-1.6-6.6-3-12.1-4.4-16.3-1.4-4.2-3-8.3-5-12.2l10.2-4.2c2.2,4.5,4.1,9,5.6,13.5,1.5,4.5,3,10.1,4.5,16.8l-11,2.5ZM357.8,137.8h-39.3c-6.9,0-13.2-1.8-18.8-5.4-5.6-3.6-10.9-8.5-15.9-14.6l8.7-7.5c4.8,5.7,9.1,9.8,13,12.3,3.9,2.5,8.2,3.7,13,3.7h39.3v11.5ZM300.5,48.5c1.6-3.9,2.8-8.1,3.7-12.4.9-4.3,1.6-9.9,2.1-16.7h11.4c-.6,7.7-1.4,13.8-2.3,18.5-1,4.7-2.3,9-4.1,13l-10.7-2.5ZM356.5,67.4h-53.2v-11.4h53.2v11.4ZM353.5,115.8h-47.2v-36.7h47.2v36.7ZM355.1,39.2h-46.3v-11.4h46.3v11.4ZM317.7,104.3h24.3v-13.7h-24.3v13.7ZM337.7,62.2h-11.4V17.8h11.4v44.4Z"/>
  <path d="M449.5,135.2h-80.5v-11.4h80.5v11.4ZM446.7,34.6h-74.4v-11.4h74.4v11.4ZM414.8,133.4h-11.4V24.4h11.4v109.1Z"/>
  <path d="M542.3,110.8h-81.7v-11.4h81.7v11.4ZM460.7,131.1c.7-.5,1.6-1.1,2.7-1.8,4.3-2.6,8.2-5.2,11.7-7.8,3.5-2.6,6.5-4.9,8.9-6.9l7.9,8c-2.5,2.5-6,5.3-10.7,8.6-4.7,3.3-9.2,6.1-13.5,8.4l-7-8.6ZM533.1,108.9h-11.4V32.4h-40.5v76.4h-11.5V20.9h63.4v88ZM531.3,51.8h-59.8v-10.5h59.8v10.5ZM531.3,71.2h-59.8v-10.6h59.8v10.6ZM531.3,90.5h-59.8v-10.5h59.8v10.5ZM535.2,139.7c-4.4-2.3-8.9-5.1-13.6-8.4-4.7-3.3-8.3-6.2-10.7-8.5l8-8.2c2.4,2.1,5.3,4.4,8.9,7,3.5,2.6,7.4,5.2,11.7,7.8,1.1.7,2,1.3,2.8,1.8l-7,8.6Z"/>
  <path d="M553.6,49.1c3.3-5.1,6-10.7,8.1-17,2.1-6.3,3.5-10.9,4.2-14l11.5,1.9v.2c-.6,2.2-1.3,5.2-2.5,8.9-1.1,3.7-2.7,8-4.7,13-2,5-4.5,9.4-7.2,13.5l-9.4-6.5ZM554.6,132.7c1-5.1,1.7-11.2,2.2-18.3.5-7,.9-14.9,1.2-23.5,0-3.4,0-5.9.1-7.5l7.9.3c-.2,9.3-.5,18.3-1.1,27.1-.6,8.8-1.5,17-2.7,24.8l-7.7-2.9ZM593.6,77.8h-38.2v-11.5h38.2v11.5ZM594.9,39.1h-28.5v-11.3h28.5v11.3ZM579.8,139.7h-10.6V57.8h10.6v81.9ZM581.8,56.1c-2.6-3.1-4.8-6.5-6.6-10.2-1.8-3.7-3.1-6.6-3.9-8.7l11.3-2.9c.6,1.6,1.7,4,3.3,7.3,1.6,3.3,3.5,6.2,5.6,8.8l-9.7,5.7ZM586.9,135.6c-1.1-7.7-2-16-2.6-24.8-.6-8.8-1-17.8-1.2-27.1l7.9-.6c0,1.5,0,4,.2,7.5.2,8.7.6,16.6,1.2,23.7.6,7.1,1.3,13.2,2.2,18.3l-7.7,2.9ZM592.7,48.1c3.2-5,5.8-10.4,7.8-16.2,2-5.8,3.4-10.4,4.2-13.6h0c0-.1,11.3,1.8,11.3,1.8v.3c-.5,2.3-1.3,5.2-2.3,8.7-1,3.5-2.5,7.6-4.5,12.4-2,4.8-4.3,9.1-7.1,13.1l-9.4-6.5ZM631.8,137.8h-35.2V59h35.2v78.8ZM630.1,92.6h-31.4v-9.6h31.4v9.6ZM630.1,113.9h-31.4v-9.6h31.4v9.6ZM633.4,39.1h-28.6v-11.3h28.6v11.3ZM607.5,126.5h13.7v-56h-13.7v56ZM620.4,56.1c-2.6-3.1-4.8-6.5-6.6-10.2-1.8-3.6-3.1-6.6-3.9-8.7l11.4-2.9c.6,1.6,1.7,4,3.2,7.3,1.5,3.3,3.4,6.2,5.5,8.8l-9.6,5.7Z"/>
</svg>