<?xml version="1.0" encoding="UTF-8"?>
<svg id="_图层_1" xmlns="http://www.w3.org/2000/svg" version="1.1" viewBox="0 0 330 160">
  <!-- Generator: Adobe Illustrator 29.0.0, SVG Export Plug-In . SVG Version: 2.1.0 Build 186)  -->
  <defs>
    <style>
      .st0 {
        fill: #fff;
      }

      .st1 {
        fill: #ff8c19;
      }
    </style>
  </defs>
  <rect class="st1" x="0" y="0" width="330" height="160" rx="80" ry="80"/>
  <g>
    <path class="st0" d="M163.9,105.1h-72.1v-13.5h72.1v13.5ZM163.4,56.1h-13.4v-8.2h-44.3v8.2h-13.4v-21.6h71.1v21.6ZM107.2,117.2c4.1,1.8,7.9,2.8,11.3,2.9,3.4.2,5.1-1.5,5.1-5v-27.4c1.8-1.1,3.9-2.4,6.3-4.1,2.4-1.7,4.7-3.4,6.7-5.2,2.1-1.8,3.5-3.2,4.3-4.4h-43.7v-13.6h61.3v12.4c-1.3,3.1-3.1,6-5.5,8.6-2.3,2.6-4.6,4.8-6.9,6.6-2.3,1.8-4.7,3.5-7.4,5.2-.9.6-1.6,1-1.9,1.3v20.5c0,7.7-1.7,13-5.1,15.7-3.4,2.7-7.2,3.9-11.4,3.5-4.2-.4-9-1.5-14.4-3.1-.4,0-.7-.1-.8-.2-.3-.1-.6-.2-.9-.3l2.9-13.5ZM124.2,42.5c-.9-3.3-2.7-8.5-5.3-15.6l13.2-1.3c2.5,6,4.4,11,5.7,15.2l-13.6,1.7Z"/>
    <path class="st0" d="M165.8,130c2.9-5.7,4.7-11.9,5.5-18.7.8-6.8,1.1-14.9,1.1-24.3v-10.1h-6.1v-13.6h19.5v20.1c0,12-.4,21.8-1.2,29.2-.8,7.4-2.9,14.7-6.1,21.7l-12.7-4.3ZM174,57.3c-1.1-5.9-2.3-10.8-3.5-14.7-1.2-3.9-2.7-7.9-4.5-11.9l12.1-4.9c2.2,4.6,3.9,9.1,5.2,13.4,1.3,4.3,2.5,9.4,3.5,15.3l-12.9,2.8ZM238.2,133.1h-34.8c-6.4,0-12.2-1.7-17.4-5-5.2-3.3-10.1-7.8-14.6-13.4l10.3-8.7c4.1,5,7.8,8.6,11.1,10.6,3.3,2,6.8,3,10.7,3h34.8v13.5ZM187.7,51c1.3-2.8,2.2-6,2.9-9.5.7-3.5,1.3-8.2,1.7-14h13.4c-.5,6.9-1.1,12.3-1.9,16.1-.8,3.9-2,7.3-3.5,10.2l-12.6-2.8ZM236.9,70.9h-45.8v-13.4h45.8v13.4ZM234.5,112.5h-41.1v-33.8h41.1v33.8ZM235.8,46.8h-40.2v-13.5h40.2v13.5ZM206.8,99h14.2v-6.9h-14.2v6.9ZM222.7,64.9h-13.5V26.4h13.5v38.5Z"/>
  </g>
</svg>