<?xml version="1.0" encoding="UTF-8"?>
<svg id="_图层_1" data-name="图层 1" xmlns="http://www.w3.org/2000/svg" viewBox="0 0 70 26">
  <defs>
    <style>
      .cls-1 {
        fill: #f5f5f5;
      }
    </style>
  </defs>
  <rect class="cls-1" x="0" width="70" height="26" rx="3.05" ry="3.05"/>
  <polygon points="23.66 22.73 5.74 22.73 5.74 19.13 17.62 6.9 9.56 6.9 9.56 10.03 5.74 10.03 5.74 3.08 23.66 3.08 23.66 6.17 11.29 18.9 19.84 18.9 19.84 15.63 23.66 15.63 23.66 22.73"/>
  <path d="M45.39,22.73h-19.64L34.18,2.84h2.79l8.43,19.89ZM31.52,18.9h8.1l-4.05-9.55-4.05,9.55Z"/>
  <path d="M64.96,22.73h-8v-6.33l1.15-.5c1.78-.77,2.93-2.53,2.93-4.49,0-2.71-2.21-4.92-4.92-4.92s-4.92,2.21-4.92,4.92c0,1.93,1.15,3.7,2.94,4.5l1.13.51v6.31h-8.07v-3.82h4.25v-.11c-2.51-1.59-4.07-4.37-4.07-7.38,0-4.82,3.92-8.74,8.74-8.74s8.74,3.92,8.74,8.74c0,3.04-1.57,5.82-4.09,7.39v.09h4.18v3.82Z"/>
</svg>